<?xml version="1.0" encoding="utf-8"?>
<!-- Generator: Adobe Illustrator 27.5.0, SVG Export Plug-In . SVG Version: 6.00 Build 0)  -->
<svg version="1.1" id="Layer_1" xmlns="http://www.w3.org/2000/svg" xmlns:xlink="http://www.w3.org/1999/xlink" x="0px" y="0px"
	 viewBox="0 0 120 85" style="enable-background:new 0 0 120 85;" xml:space="preserve">
<g id="New_Symbol">
	
		<radialGradient id="SVGID_1_" cx="60.4057" cy="42.5" r="73.5285" gradientTransform="matrix(1.0068 0 0 1 -0.8165 0)" gradientUnits="userSpaceOnUse">
		<stop  offset="0" style="stop-color:#FFFFFF"/>
		<stop  offset="0.4866" style="stop-color:#FDFDFD"/>
		<stop  offset="0.6624" style="stop-color:#F6F7F7"/>
		<stop  offset="0.7877" style="stop-color:#EBEBEC"/>
		<stop  offset="0.8891" style="stop-color:#DADBDC"/>
		<stop  offset="0.975" style="stop-color:#C4C6C7"/>
		<stop  offset="1" style="stop-color:#BCBEC0"/>
	</radialGradient>
	<rect style="fill:url(#SVGID_1_);" width="120" height="85"/>
	<g>
		<g>
			<path style="fill:#99DFF9;" d="M4.055,14.339l-0.008-0.075l7.271-1.068v0.002l0.012,0.032l0.023,0.027l-0.009,0.011l-0.007,0.001
				l-1.177,0.696L4.055,14.339z M11.142,13.298L4.932,14.21l5.213-0.319L11.142,13.298z"/>
		</g>
		<g>
			<path style="fill:#99DFF9;" d="M57.363,20.985l-0.02-0.07l11.246-6.081l-0.957,5.597L57.363,20.985z M68.489,14.974
				l-10.963,5.928l10.042-0.542L68.489,14.974z"/>
		</g>
		<g>
			<polygon style="fill:#99DFF9;" points="0,17.872 4.022,14.377 5.327,26.581 0,25.412 0,25.489 5.413,26.677 4.09,14.298 
				4.056,14.301 4.028,14.273 0,17.772 			"/>
		</g>
		<g>
			<polygon style="fill:#99DFF9;" points="4.081,14.326 4.067,14.314 4.038,14.267 0,15.906 0,15.987 3.857,14.421 0,17.772 
				0,17.872 4.077,14.33 4.067,14.314 			"/>
		</g>
		<g>
			<path style="fill:#99DFF9;" d="M5.405,26.642l-0.073-0.013l-0.087-6.315l0.008-0.01l4.874-6.398l0.002,0.001l0.063,0.035
				L5.405,26.642z M5.321,20.339l0.083,6.09l4.626-12.272L5.321,20.339z"/>
		</g>
		<g>
			<path style="fill:#99DFF9;" d="M5.405,26.642l-0.073-0.009L4.011,14.267l0.039-0.003l6.163-0.377L5.405,26.642z M4.094,14.337
				l1.297,12.13l4.711-12.497L4.094,14.337z"/>
		</g>
		<g>
			<path style="fill:#99DFF9;" d="M26.216,20.957l-1.92-0.692l-0.394-1.319l2.351,1.947L26.216,20.957z M24.357,20.208l1.682,0.606
				l-1.994-1.651L24.357,20.208z"/>
		</g>
		<g>
			<path style="fill:#99DFF9;" d="M43.707,26.915l-10.292-0.886l0.037-0.053l8.358-12.014L43.707,26.915z M33.551,25.966
				l10.067,0.866l-1.855-12.67L33.551,25.966z"/>
		</g>
		<g>
			<path style="fill:#99DFF9;" d="M43.62,26.916l0.005-0.046l1.254-10.913l0.057,0.078l7.306,9.988L43.62,26.916z M44.933,16.157
				l-1.228,10.674l8.399-0.87L44.933,16.157z"/>
		</g>
		<g>
			<path style="fill:#99DFF9;" d="M43.625,26.879l-1.887-12.893l3.208,2.052L43.7,26.878L43.625,26.879z M41.837,14.139
				l1.821,12.444l1.208-10.507L41.837,14.139z"/>
		</g>
		<g>
			<path style="fill:#99DFF9;" d="M52.209,26.005l-0.073-0.009l-0.261-3.081l1.969-1.566L52.209,26.005z M51.954,22.948l0.243,2.866
				l1.49-4.243L51.954,22.948z"/>
		</g>
		<g>
			<path style="fill:#99DFF9;" d="M52.186,26.072l-7.31-9.993l0.05-0.054l8.885,5.419L52.186,26.072z M45.049,16.188l7.113,9.725
				l1.558-4.436L45.049,16.188z"/>
		</g>
		<g>
			<path style="fill:#99DFF9;" d="M51.926,22.967l-0.025-0.071l5.447-1.984l5.074-1.481l0.022,0.072L51.926,22.967z M60.329,20.12
				l-2.957,0.863l-3.175,1.157L60.329,20.12z"/>
		</g>
		<g>
			<path style="fill:#99DFF9;" d="M51.927,22.967l-0.037-0.065l1.859-1.478l0.01-0.001l3.596-0.512l0.001,0.005l0.017,0.067
				l-0.001-0.004l0.001,0.004L51.927,22.967z M53.781,21.496l-1.663,1.322l4.891-1.782L53.781,21.496z"/>
		</g>
		<g>
			<path style="fill:#99DFF9;" d="M63.82,21.349l-1.477-1.937l5.264,0.945l0.002,0.073L63.82,21.349z M62.521,19.521l1.329,1.744
				l3.568-0.864L62.521,19.521z"/>
		</g>
		<g>
			<path style="fill:#99DFF9;" d="M57.363,20.985l-0.013-0.073l5.08-1.483l0.009,0.002l5.168,0.928l-0.005,0.074L57.363,20.985z
				 M62.435,19.505l-4.751,1.388l9.594-0.518L62.435,19.505z"/>
		</g>
		<g>
			<polygon style="fill:#99DFF9;" points="0,27.095 5.166,26.683 0,29.097 0,29.18 5.386,26.663 5.37,26.625 5.367,26.591 0,27.02 
							"/>
		</g>
		<g>
			<polygon style="fill:#99DFF9;" points="0,25.412 0,25.489 5.253,26.642 0,29.097 0,29.18 5.386,26.663 5.371,26.626 
				5.378,26.592 			"/>
		</g>
		<g>
			<polygon style="fill:#99DFF9;" points="0,26.424 5.277,20.391 11.309,30.503 0,27.257 0,27.335 11.471,30.628 5.289,20.263 
				0,26.31 			"/>
		</g>
		<g>
			<polygon style="fill:#99DFF9;" points="0,26.424 5.247,20.425 5.331,26.594 0,27.02 0,27.095 5.408,26.664 5.319,20.228 0,26.31 
							"/>
		</g>
		<g>
			<path style="fill:#99DFF9;" d="M19.233,32.815l-7.881-2.221l-0.016-5.825h0.054l0.011,0.012L19.233,32.815z M11.428,30.538
				l7.556,2.129l-7.571-7.768L11.428,30.538z"/>
		</g>
		<g>
			<path style="fill:#99DFF9;" d="M11.428,30.703L5.251,20.346l0.055-0.049l6.183,4.548h-0.077L11.428,30.703z M5.411,20.467
				l5.941,9.961l-0.015-5.603L5.411,20.467z"/>
		</g>
		<g>
			<path style="fill:#99DFF9;" d="M19.142,32.758l-0.068-0.032l5.217-12.502l0.01-0.015l0.063,0.037l-0.01-0.003l0.009,0.004
				l-1.833,6.043L19.142,32.758z M24.074,20.94l-4.599,11.019l2.985-5.696L24.074,20.94z"/>
		</g>
		<g>
			<path style="fill:#99DFF9;" d="M19.121,32.808l-0.04-0.041l-7.775-7.976l13.008-4.59l0.008,0.023l0.039,0.026L19.121,32.808z
				 M11.442,24.822l7.653,7.852L24.259,20.3L11.442,24.822z"/>
		</g>
		<g>
			<path style="fill:#99DFF9;" d="M26.348,26.991l-3.918-0.683l3.836-5.504L26.348,26.991z M22.559,26.254l3.712,0.647l-0.078-5.862
				L22.559,26.254z"/>
		</g>
		<g>
			<path style="fill:#99DFF9;" d="M22.525,26.303l-0.067-0.032l1.845-6.083l1.986,0.715l-0.028,0.04L22.525,26.303z M24.352,20.285
				l-1.753,5.779l3.571-5.125L24.352,20.285z"/>
		</g>
		<g>
			<path style="fill:#99DFF9;" d="M38.077,29.482l-11.776-2.499l0.003-0.074l7.19-0.951l4.614,3.457L38.077,29.482z M26.53,26.955
				l11.396,2.419l-4.453-3.336L26.53,26.955z"/>
		</g>
		<g>
			<path style="fill:#99DFF9;" d="M26.272,26.989l-0.082-6.14l7.315,5.119l-0.02,0.027l0.003,0.041L26.272,26.989z M26.268,20.995
				l0.079,5.909l7.037-0.93L26.268,20.995z"/>
		</g>
		<g>
			<path style="fill:#99DFF9;" d="M44.066,31.148l-6.089-1.694l5.662-2.61l0.054-0.067l0.008,0.094L44.066,31.148z M38.194,29.437
				l5.788,1.61l-0.351-4.116L38.194,29.437z"/>
		</g>
		<g>
			<path style="fill:#99DFF9;" d="M38.081,29.489l-4.725-3.54l10.38,0.893l-0.058,0.066L38.081,29.489z M33.611,26.046l4.479,3.355
				l5.429-2.503L33.611,26.046z"/>
		</g>
		<g>
			<path style="fill:#99DFF9;" d="M44.028,31.135l-0.024-0.069l8.15-5.105l0.048,0.057l-4.536,4.734L44.028,31.135z M51.937,26.185
				l-7.756,4.858l3.448-0.363L51.937,26.185z"/>
		</g>
		<g>
			<path style="fill:#99DFF9;" d="M43.991,31.162l-0.369-4.322l8.548-0.885l0.024,0.069L43.991,31.162z M43.704,26.907l0.353,4.126
				l7.961-4.987L43.704,26.907z"/>
		</g>
		<g>
			<path style="fill:#99DFF9;" d="M50.445,32.513l-2.848-1.784l4.284-7.816l0.071,0.024L50.445,32.513z M47.697,30.704l2.691,1.685
				l1.455-9.249L47.697,30.704z"/>
		</g>
		<g>
			<path style="fill:#99DFF9;" d="M47.674,30.743l-0.061-0.044l4.328-7.895l0.272,3.202L47.674,30.743z M51.887,23.06l-4.07,7.425
				l4.318-4.506L51.887,23.06z"/>
		</g>
		<g>
			<path style="fill:#99DFF9;" d="M50.293,32.529L62.397,19.45l0.007-0.039l0.02,0.01l0.069-0.074l-0.019,0.1l0.019,0.01
				l-0.026,0.029l-1.816,9.816l-0.021,0.007L50.293,32.529z M62.371,19.588L50.54,32.373l10.046-3.13L62.371,19.588z"/>
		</g>
		<g>
			<path style="fill:#99DFF9;" d="M50.36,32.567l1.521-9.664l0.022-0.007l10.533-3.47l0.059,0.029l-0.033,0.037L50.36,32.567z
				 M51.948,22.96l-1.475,9.375l11.833-12.787L51.948,22.96z"/>
		</g>
		<g>
			<path style="fill:#99DFF9;" d="M63.544,32.627l-2.969-3.348l3.224-7.992l0.122-0.091l-0.048,0.119L63.544,32.627z M60.662,29.265
				l2.811,3.17l0.318-10.918L60.662,29.265z"/>
		</g>
		<g>
			<path style="fill:#99DFF9;" d="M60.653,29.286l-0.072-0.021l1.83-9.889l1.432,1.878l0.078-0.058l-0.05,0.124L60.653,29.286z
				 M62.454,19.557l-1.731,9.354l3.069-7.598L62.454,19.557z"/>
		</g>
		<g>
			<polygon style="fill:#99DFF9;" points="0,27.938 0,28.066 6.834,37.454 0,38.099 0,38.174 6.972,37.517 			"/>
		</g>
		<g>
			<path style="fill:#99DFF9;" d="M12.705,39.43l-5.86-1.924l4.568-7.045L12.705,39.43z M6.961,37.465l5.652,1.856l-1.247-8.65
				L6.961,37.465z"/>
		</g>
		<g>
			<polygon style="fill:#99DFF9;" points="0,27.257 0,27.335 11.331,30.588 6.901,37.419 0,27.938 0,28.066 6.905,37.552 
				11.449,30.544 			"/>
		</g>
		<g>
			<path style="fill:#99DFF9;" d="M12.678,39.408l-0.046-0.059l6.449-6.635l0.059,0.046l-2.872,4.6L12.678,39.408z M18.89,33.02
				l-6.018,6.191l3.342-1.906L18.89,33.02z"/>
		</g>
		<g>
			<path style="fill:#99DFF9;" d="M12.633,39.457l-1.289-8.943l7.835,2.208L12.633,39.457z M11.435,30.618l1.25,8.677l6.352-6.534
				L11.435,30.618z"/>
		</g>
		<g>
			<path style="fill:#99DFF9;" d="M16.268,37.359l-0.06-0.044l6.25-11.045l0.004-0.026h0.097l-0.028,0.05l-0.756,5.493l-0.009,0.009
				L16.268,37.359z M22.429,26.472l-6.017,10.633l5.29-5.353L22.429,26.472z"/>
		</g>
		<g>
			<path style="fill:#99DFF9;" d="M16.272,37.353l-0.065-0.038l6.263-11.071h0.087L22.527,26.3l-0.033-0.01l0,0l0.029,0.016
				l-3.382,6.453L16.272,37.353z M21.369,28.345l-4.239,7.491l1.946-3.115L21.369,28.345z"/>
		</g>
		<g>
			<path style="fill:#99DFF9;" d="M28.599,34.709l-6.925-2.926l4.603-4.857l0.038-0.095l0.031,0.105L28.599,34.709z M21.803,31.756
				l6.679,2.822l-2.191-7.559L21.803,31.756z"/>
		</g>
		<g>
			<path style="fill:#99DFF9;" d="M21.685,31.881l0.776-5.643l3.9,0.68l-0.025,0.055L21.685,31.881z M22.526,26.325l-0.734,5.334
				l4.442-4.688L22.526,26.325z"/>
		</g>
		<g>
			<path style="fill:#99DFF9;" d="M30.477,39.41l-1.984-4.782l0.03-0.016l9.537-5.194l0.083-0.109l-0.023,0.161l-0.01,0.005
				L30.477,39.41z M28.588,34.661l1.908,4.6l7.45-9.696L28.588,34.661z"/>
		</g>
		<g>
			<path style="fill:#99DFF9;" d="M28.518,34.699l-2.262-7.803l11.872,2.52l-0.007,0.053l-0.017,0.009L28.518,34.699z
				 M26.363,26.996l2.201,7.592l9.414-5.128L26.363,26.996z"/>
		</g>
		<g>
			<path style="fill:#99DFF9;" d="M30.497,39.371l-0.03-0.068l13.573-8.259l0.018,0.038l1.847,3.968l-0.042,0.012L30.497,39.371z
				 M44.007,31.151l-13.268,8.074l15.06-4.223L44.007,31.151z"/>
		</g>
		<g>
			<path style="fill:#99DFF9;" d="M30.506,39.367l-0.05-0.055l7.614-9.91l6.042,1.681l-0.069,0.045L30.506,39.367z M38.1,29.488
				l-7.46,9.71L43.93,31.11L38.1,29.488z"/>
		</g>
		<g>
			<path style="fill:#99DFF9;" d="M45.848,35.135l-0.695-2.136l2.468-2.309l0.061,0.042L45.848,35.135z M45.24,33.021l0.617,1.897
				l1.688-4.054L45.24,33.021z"/>
		</g>
		<g>
			<path style="fill:#99DFF9;" d="M45.854,35.12l-1.887-4.054l3.739-0.393L45.854,35.12z M44.08,31.129l1.771,3.803l1.737-4.172
				L44.08,31.129z"/>
		</g>
		<g>
			<path style="fill:#99DFF9;" d="M57.263,36.124l-12.076-3.078l0.005-0.074l5.248-0.562l0.005,0.014l6.844,3.63L57.263,36.124z
				 M45.408,33.025l11.57,2.948l-6.569-3.484L45.408,33.025z"/>
		</g>
		<g>
			<path style="fill:#99DFF9;" d="M45.089,33.059l2.554-2.39l2.783,1.743l0.015-0.002l0.006,0.016l0.081,0.051l-0.058,0.006
				l0.025,0.062l-0.087-0.055L45.089,33.059z M47.652,30.764l-2.348,2.197l5-0.536L47.652,30.764z"/>
		</g>
		<g>
			<path style="fill:#99DFF9;" d="M55.246,37.993l-0.058-0.047l5.398-8.693l0.009,0.005l0.061,0.014v0.011l-0.005,0.008
				l-3.348,6.819l-0.005,0.005L55.246,37.993z M60.249,29.937l-4.853,7.816l1.845-1.688L60.249,29.937z"/>
		</g>
		<g>
			<path style="fill:#99DFF9;" d="M57.289,36.139l-0.035-0.019l-6.935-3.678l10.372-3.232L57.289,36.139z M50.514,32.46l6.742,3.576
				l3.29-6.702L50.514,32.46z"/>
		</g>
		<g>
			<path style="fill:#99DFF9;" d="M55.093,38.003l8.417-5.518l0.021,0.016l7.313,5.384L55.093,38.003z M63.508,32.576l-8.16,5.351
				l15.27-0.116L63.508,32.576z"/>
		</g>
		<g>
			<path style="fill:#99DFF9;" d="M55.241,37.997l-0.053-0.051l5.425-8.736l2.924,3.297l-0.026,0.028l0.019,0.028L55.241,37.997z
				 M60.623,29.334l-5.281,8.506l8.11-5.317L60.623,29.334z"/>
		</g>
		<g>
			<polygon style="fill:#99DFF9;" points="0,43.26 0,43.353 1.501,44.454 0,43.731 0,43.814 1.835,44.699 1.874,44.635 			"/>
		</g>
		<g>
			<path style="fill:#99DFF9;" d="M1.762,44.728L6.918,37.4l1.607,5.571l-0.037,0.01L1.762,44.728z M6.889,37.572l-4.948,7.032
				l6.49-1.686L6.889,37.572z"/>
		</g>
		<g>
			<polygon style="fill:#99DFF9;" points="6.921,37.446 0,38.099 0,38.174 6.826,37.53 1.843,44.612 0,43.26 0,43.353 1.86,44.718 
				6.934,37.507 6.949,37.485 			"/>
		</g>
		<g>
			<path style="fill:#99DFF9;" d="M8.422,43.042l0.511-2.868l3.718-0.834l0.011,0.04l0.021,0.024L8.422,43.042z M8.998,40.236
				l-0.465,2.612l3.985-3.402L8.998,40.236z"/>
		</g>
		<g>
			<path style="fill:#99DFF9;" d="M8.458,43.011l-1.611-5.583l5.932,1.948l-0.101,0.033L8.458,43.011z M6.959,37.543l1.539,5.334
				l4.085-3.488L6.959,37.543z"/>
		</g>
		<g>
			<path style="fill:#99DFF9;" d="M14.862,41.68l-6.02-1.467l7.466-2.947l-0.032,0.081L14.862,41.68z M9.089,40.196l5.723,1.394
				l1.368-4.193L9.089,40.196z"/>
		</g>
		<g>
			<path style="fill:#99DFF9;" d="M8.974,40.241L8.952,40.17l7.356-2.904l-0.037,0.093l-0.012,0.007l-3.592,2.047L8.974,40.241z
				 M15.766,37.561l-6.337,2.501l3.216-0.722L15.766,37.561z"/>
		</g>
		<g>
			<path style="fill:#99DFF9;" d="M21.781,45.574l-6.998-3.927l6.994-9.998L21.781,45.574z M14.892,41.623l6.813,3.824L21.701,31.89
				L14.892,41.623z"/>
		</g>
		<g>
			<path style="fill:#99DFF9;" d="M14.868,41.657l-0.067-0.033l1.406-4.311l0.006-0.006l5.498-5.563l0.058,0.047l-0.009-0.006
				l0.008,0.007L14.868,41.657z M16.274,37.353l-1.322,4.053l6.501-9.293L16.274,37.353z"/>
		</g>
		<g>
			<path style="fill:#99DFF9;" d="M21.775,45.53l-0.068-0.032l2.058-5.817l4.748-5.062l0.003,0.003l0.056,0.042L21.775,45.53z
				 M23.831,39.72l-1.939,5.479l6.411-10.247L23.831,39.72z"/>
		</g>
		<g>
			<path style="fill:#99DFF9;" d="M21.705,45.642l-0.004-13.928l6.914,2.921l-0.046,0.035L21.705,45.642z M21.776,31.827
				l0.004,13.552l6.705-10.718L21.776,31.827z"/>
		</g>
		<g>
			<path style="fill:#99DFF9;" d="M37.02,41.657l-13.227-1.919l0.003-0.075l6.696-0.366l0.007,0.002l6.539,2.285L37.02,41.657z
				 M24.176,39.717l12.469,1.81l-6.164-2.154L24.176,39.717z"/>
		</g>
		<g>
			<path style="fill:#99DFF9;" d="M23.707,39.743l4.846-5.167l1.989,4.794L23.707,39.743z M28.528,34.712l-4.639,4.946l6.542-0.357
				L28.528,34.712z"/>
		</g>
		<g>
			<path style="fill:#99DFF9;" d="M37.041,41.654l-0.039-0.064l8.833-6.598l0.099-0.028l-0.049,0.081l-2.054,3.409l-0.01,0.005
				L37.041,41.654z M45.721,35.171l-8.375,6.257l6.431-3.031L45.721,35.171z"/>
		</g>
		<g>
			<path style="fill:#99DFF9;" d="M37.032,41.662l-0.019-0.006l-6.651-2.325l15.48-4.341l0.01,0.037l0.022,0.029L37.032,41.662z
				 M30.612,39.339l6.407,2.239l8.649-6.461L30.612,39.339z"/>
		</g>
		<g>
			<path style="fill:#99DFF9;" d="M50.388,42.478l-6.627-4.034l1.423-5.536L50.388,42.478z M43.848,38.408l6.34,3.86l-4.979-9.156
				L43.848,38.408z"/>
		</g>
		<g>
			<path style="fill:#99DFF9;" d="M43.836,38.445l-0.069-0.028l1.39-5.405l-0.004-0.012l0.009-0.009l0.03-0.115l0.021,0.065
				l0.054-0.053l-0.031,0.122l0.658,2.022L43.836,38.445z M45.201,33.145l-1.296,5.041l1.906-3.164L45.201,33.145z"/>
		</g>
		<g>
			<path style="fill:#99DFF9;" d="M50.161,42.436l7.15-6.435l-0.062,5.022L50.161,42.436z M57.233,36.173l-6.819,6.136l6.76-1.347
				L57.233,36.173z"/>
		</g>
		<g>
			<path style="fill:#99DFF9;" d="M50.277,42.433l-5.155-9.48l12.228,3.116L50.277,42.433z M45.271,33.067l5.027,9.246l6.897-6.207
				L45.271,33.067z"/>
		</g>
		<g>
			<path style="fill:#99DFF9;" d="M57.201,41.044l-2.07-3.147l4.726,1.494L57.201,41.044z M55.31,38.033l1.913,2.909l2.455-1.528
				L55.31,38.033z"/>
		</g>
		<g>
			<path style="fill:#99DFF9;" d="M57.248,41.117l-2.077-3.158L57.311,36L57.248,41.117z M55.269,37.971l1.907,2.898l0.057-4.696
				L55.269,37.971z"/>
		</g>
		<g>
			<path style="fill:#99DFF9;" d="M66.874,39.607l-7.107-0.167l-0.004-0.075l10.957-1.554l0.007-0.003l0.013,0.003l-0.002,0.044
				l0.009,0.027l-0.002-0.003l0.001,0.003L66.874,39.607z M60.224,39.376l6.635,0.155l3.611-1.609L60.224,39.376z"/>
		</g>
		<g>
			<path style="fill:#99DFF9;" d="M59.765,39.441l-0.008-0.002l-4.547-1.438l0.011-0.073l15.514-0.118l0.005,0.001l-0.003,0.074
				L59.765,39.441z M55.457,38.001l4.314,1.363l10.407-1.476L55.457,38.001z"/>
		</g>
		<g>
			<polygon style="fill:#99DFF9;" points="2.262,44.251 0,45.411 0,45.495 2.034,44.453 1.831,44.633 0,45.548 0,45.632 
				1.85,44.707 1.856,44.711 2.304,44.313 			"/>
		</g>
		<g>
			<path style="fill:#99DFF9;" d="M3.056,49.109l-0.82-4.854l6.334-1.37l-0.061,0.081L3.056,49.109z M2.322,44.313l0.782,4.628
				l5.27-5.936L2.322,44.313z"/>
		</g>
		<g>
			<path style="fill:#99DFF9;" d="M1.861,44.701l-0.035-0.064l0.435-0.387l0.01-0.002l6.298-1.362L8.5,42.977l-0.013,0.004
				L1.861,44.701z M2.297,44.319L1.993,44.59l4.712-1.224L2.297,44.319z"/>
		</g>
		<g>
			<path style="fill:#99DFF9;" d="M3.099,49.058l-0.051-0.053l5.966-8.941l-0.011,0.144l-0.432,5.635l-0.017,0.01L3.099,49.058z
				 M8.917,40.345L3.202,48.91l5.297-3.112L8.917,40.345z"/>
		</g>
		<g>
			<path style="fill:#99DFF9;" d="M3.108,49.051l-0.06-0.046l5.886-8.821l0.069,0.027l-0.49,2.75l-0.007,0.008L3.108,49.051z
				 M8.897,40.375l-5.482,8.216l5.028-5.664L8.897,40.375z"/>
		</g>
		<g>
			<path style="fill:#99DFF9;" d="M8.542,45.857l-0.027-0.068l6.302-4.185l0.021,0.03l0.023-0.029l3.411,2.562L8.542,45.857z
				 M14.836,41.682l-6.131,4.071l9.382-1.631L14.836,41.682z"/>
		</g>
		<g>
			<path style="fill:#99DFF9;" d="M8.492,45.895l0.44-5.737l5.93,1.449l0.039,0.032l-0.042,0.028L8.492,45.895z M9,40.251
				l-0.421,5.495l6.167-4.095L9,40.251z"/>
		</g>
		<g>
			<path style="fill:#99DFF9;" d="M22.943,50.929l-4.867-6.863l3.699,1.417l0.002,0.011l0.087,0.104l-0.07-0.027l1.215,5.328
				L22.943,50.929z M18.281,44.224l4.613,6.507l-1.184-5.192L18.281,44.224z"/>
		</g>
		<g>
			<path style="fill:#99DFF9;" d="M21.865,45.598l-3.709-1.423l-3.341-2.51l0.042-0.063l6.912,3.878L21.865,45.598z M18.197,44.111
				l3.079,1.18l-5.964-3.347L18.197,44.111z"/>
		</g>
		<g>
			<path style="fill:#99DFF9;" d="M22.932,50.956l0.835-11.347l8.057,9.069l-0.059,0.016L22.932,50.956z M23.83,39.792
				l-0.815,11.065l8.67-2.222L23.83,39.792z"/>
		</g>
		<g>
			<path style="fill:#99DFF9;" d="M22.937,50.915l-1.233-5.407l2.059-5.82l0.073,0.015l-0.825,11.206L22.937,50.915z M21.782,45.513
				l1.172,5.141l0.786-10.675L21.782,45.513z"/>
		</g>
		<g>
			<path style="fill:#99DFF9;" d="M31.672,48.704l5.315-7.095l-0.001-0.133l0.044,0.076l0.032-0.042l0.002,0.1l0.007,0.013
				l-0.007,0.01l0.088,6.456l-0.034,0.004L31.672,48.704z M36.989,41.732l-5.152,6.879l5.238-0.589L36.989,41.732z"/>
		</g>
		<g>
			<path style="fill:#99DFF9;" d="M31.757,48.717l-0.031-0.035l-8.025-9.033l13.347,1.937l0.021,0.037l-0.015,0.02L31.757,48.717z
				 M23.895,39.752l7.857,8.845l5.205-6.949L23.895,39.752z"/>
		</g>
		<g>
			<path style="fill:#99DFF9;" d="M37.04,48.096l6.733-9.691l0.068,0.026l-1.319,9.462L37.04,48.096z M43.745,38.577l-6.558,9.438
				l5.269-0.195L43.745,38.577z"/>
		</g>
		<g>
			<path style="fill:#99DFF9;" d="M37.077,48.173l-0.09-6.576l0.022-0.01l6.906-3.254L37.077,48.173z M37.063,41.644l0.086,6.293
				l6.544-9.418L37.063,41.644z"/>
		</g>
		<g>
			<path style="fill:#99DFF9;" d="M49.786,51.972l-7.367-4.112l0.048-0.034l7.809-5.49h0.052l-0.002,0.04L49.786,51.972z
				 M42.559,47.853l7.158,3.994l0.528-9.398L42.559,47.853z"/>
		</g>
		<g>
			<path style="fill:#99DFF9;" d="M42.439,47.937l1.335-9.573l6.647,4.046h-0.122L42.439,47.937z M43.833,38.488l-1.295,9.288
				l7.681-5.4L43.833,38.488z"/>
		</g>
		<g>
			<path style="fill:#99DFF9;" d="M49.783,51.931l-0.068-0.029l1.801-7.917l0.015-0.009l5.663-3.016l0.001,0.001l0.048,0.053
				L49.783,51.931z M51.582,44.034l-1.75,7.69l7.262-10.626L51.582,44.034z"/>
		</g>
		<g>
			<path style="fill:#99DFF9;" d="M49.706,52.042l0.545-9.7l7.044-1.403L49.706,52.042z M50.324,42.404l-0.527,9.373l7.332-10.729
				L50.324,42.404z"/>
		</g>
		<g>
			<path style="fill:#99DFF9;" d="M61.306,51.403l-9.825-7.399l0.05-0.027l8.247-4.623l0.026,0.034l0.001,0.01L61.306,51.403z
				 M51.618,44.014l9.591,7.223l-1.472-11.773L51.618,44.014z"/>
		</g>
		<g>
			<path style="fill:#99DFF9;" d="M51.567,44.042l-0.036-0.065l8.247-4.623l0.044,0.059l-0.035,0.022l-2.555,1.59L51.567,44.042z
				 M58.363,40.233l-3.756,2.105l2.587-1.378L58.363,40.233z"/>
		</g>
		<g>
			<path style="fill:#99DFF9;" d="M61.168,51.419l5.675-11.887h0.07l-0.01,0.045l-2.062,9.567L61.168,51.419z M66.762,39.875
				L61.347,51.22l3.429-2.123L66.762,39.875z"/>
		</g>
		<g>
			<path style="fill:#99DFF9;" d="M61.235,51.452l-1.511-12.088l7.143,0.167v0.038l0.033,0.016L61.235,51.452z M59.81,39.441
				l1.468,11.746l5.529-11.582L59.81,39.441z"/>
		</g>
		<g>
			<polygon style="fill:#99DFF9;" points="0,46.157 1.957,44.591 0,46.794 0,46.907 2.308,44.31 2.255,44.256 0,46.062 			"/>
		</g>
		<g>
			<polygon style="fill:#99DFF9;" points="0,49.922 3.049,49.073 4.131,55.938 0,54.453 0,54.533 4.225,56.052 3.111,48.979 
				0,49.844 			"/>
		</g>
		<g>
			<polygon style="fill:#99DFF9;" points="3.117,49.02 2.306,44.215 0,46.062 0,46.157 2.252,44.354 3.037,48.999 0,49.844 
				0,49.922 3.09,49.062 3.085,49.024 			"/>
		</g>
		<g>
			<path style="fill:#99DFF9;" d="M12.085,56.834l-7.962-0.807l0.02-0.047L8.5,45.806l0.033-0.127l0.038,0.131L12.085,56.834z
				 M4.233,55.963l7.745,0.784L8.53,45.928L4.233,55.963z"/>
		</g>
		<g>
			<path style="fill:#99DFF9;" d="M4.161,56.131l-1.122-7.125l0.022-0.013l5.533-3.25l-0.021,0.086L4.161,56.131z M3.121,49.045
				l1.074,6.816l4.261-9.949L3.121,49.045z"/>
		</g>
		<g>
			<path style="fill:#99DFF9;" d="M14.147,57.978l-2.165-1.171l0.016-0.032l6.145-12.642l0.011-0.036l0.078,0.025l-0.018,0.038
				L14.147,57.978z M12.081,56.774l2.019,1.093l3.914-13.297L12.081,56.774z"/>
		</g>
		<g>
			<path style="fill:#99DFF9;" d="M12.024,56.892L8.486,45.791l0.042-0.008l9.653-1.678l0.05,0.017l-0.018,0.039L12.024,56.892z
				 M8.584,45.85l3.454,10.84l6.074-12.495L8.584,45.85z"/>
		</g>
		<g>
			<path style="fill:#99DFF9;" d="M24.191,58.603L24.145,58.6l-10.121-0.646l8.978-7.117L24.191,58.603z M14.224,57.892l9.879,0.63
				l-1.157-7.545L14.224,57.892z"/>
		</g>
		<g>
			<path style="fill:#99DFF9;" d="M14.054,58.026l4.11-13.967l4.84,6.825l0.014,0.027l-0.021,0.024L14.054,58.026z M18.193,44.229
				l-3.999,13.59l8.729-6.92L18.193,44.229z"/>
		</g>
		<g>
			<path style="fill:#99DFF9;" d="M24.17,58.592l-0.053-0.053l7.675-9.993v0.111l-0.024,4.228l-0.015,0.011L24.17,58.592z
				 M31.716,48.769l-7.372,9.598l7.348-5.52L31.716,48.769z"/>
		</g>
		<g>
			<path style="fill:#99DFF9;" d="M24.123,58.654l-1.192-7.775l0.033-0.009l8.886-2.276L24.123,58.654z M23.016,50.935l1.155,7.534
				l7.488-9.748L23.016,50.935z"/>
		</g>
		<g>
			<path style="fill:#99DFF9;" d="M32.851,53.173l-1.198-0.287l5.436-4.858l0.052,0.055L32.851,53.173z M31.809,52.846l1.014,0.244
				l3.919-4.652L31.809,52.846z"/>
		</g>
		<g>
			<path style="fill:#99DFF9;" d="M31.692,52.95l0.025-4.326l0.033-0.004l5.476-0.615L31.692,52.95z M31.792,48.69l-0.023,4.091
				L37,48.105L31.792,48.69z"/>
		</g>
		<g>
			<path style="fill:#99DFF9;" d="M39.871,54.723l-7.14-1.576l0.088-0.048l9.708-5.307l-0.003,0.077L39.871,54.723z M32.942,53.116
				l6.881,1.52l2.593-6.697L32.942,53.116z"/>
		</g>
		<g>
			<path style="fill:#99DFF9;" d="M32.854,53.164l-0.047-0.057l4.288-5.089l0.017-0.001l5.366-0.198l0.048-0.027v0.1l-0.027,0.002
				L32.854,53.164z M37.131,48.092l-4.137,4.91l9.336-5.103L37.131,48.092z"/>
		</g>
		<g>
			<path style="fill:#99DFF9;" d="M39.848,54.717l-0.011-0.074l9.932-2.777l0.015,0.023l1.639,2.525L39.848,54.717z M49.735,51.953
				l-9.587,2.681l11.138-0.291L49.735,51.953z"/>
		</g>
		<g>
			<path style="fill:#99DFF9;" d="M39.785,54.735l2.684-6.934l0.038,0.021l7.342,4.098L39.785,54.735z M42.508,47.91l-2.599,6.713
				l9.745-2.726L42.508,47.91z"/>
		</g>
		<g>
			<path style="fill:#99DFF9;" d="M51.315,54.44l0.197-10.432h0.035l0.035-0.019l4.698,7.858L51.315,54.44z M51.584,44.142
				l-0.191,10.174l4.78-2.496L51.584,44.142z"/>
		</g>
		<g>
			<path style="fill:#99DFF9;" d="M51.39,54.502l-1.678-2.586l0.003-0.015l1.821-8.004L51.587,44v0.01L51.39,54.502z M49.792,51.902
				l1.527,2.352l0.186-9.879L49.792,51.902z"/>
		</g>
		<g>
			<path style="fill:#99DFF9;" d="M63.559,56.663l-7.442-4.856l5.162-0.525l0.014,0.022L63.559,56.663z M56.336,51.86l7.057,4.604
				l-2.159-5.105L56.336,51.86z"/>
		</g>
		<g>
			<path style="fill:#99DFF9;" d="M56.206,51.874l-0.012-0.021l-4.677-7.824l0.055-0.049l9.797,7.378h-0.112L56.206,51.874z
				 M51.68,44.154l4.566,7.64l4.912-0.502L51.68,44.154z"/>
		</g>
		<g>
			<path style="fill:#99DFF9;" d="M63.513,56.57h-0.074l-0.731-4.584l2.071-2.888l0.067,0.028L63.513,56.57z M62.786,52.005
				l0.691,4.333l1.265-7.061L62.786,52.005z"/>
		</g>
		<g>
			<path style="fill:#99DFF9;" d="M63.49,56.695l-2.28-5.391l3.65-2.261L63.49,56.695z M61.305,51.335l2.156,5.098l1.296-7.236
				L61.305,51.335z"/>
		</g>
		<g>
			<polygon style="fill:#99DFF9;" points="4.178,55.958 4.17,55.958 0.215,57.505 0,57.599 0,57.722 4.183,56.034 4.192,56.03 			
				"/>
		</g>
		<g>
			<polygon style="fill:#99DFF9;" points="0,54.453 0,54.533 4.072,55.997 0,57.641 0,57.722 4.192,56.03 4.183,56.007 4.191,55.96 
							"/>
		</g>
		<g>
			<path style="fill:#99DFF9;" d="M10.768,57.885h-0.014L0.229,57.576l-0.001-0.074l11.801-0.749l0.002,0.034l0.025,0.032
				L10.768,57.885z M1.04,57.525l9.701,0.284l1.177-0.974L1.04,57.525z"/>
		</g>
		<g>
			<path style="fill:#99DFF9;" d="M0.232,57.576l-0.016-0.072l3.957-1.547l0.009,0.001l7.958,0.806l-0.096,0.063l-0.01,0.001
				L0.232,57.576z M4.183,56.033l-3.715,1.453l11.107-0.704L4.183,56.033z"/>
		</g>
		<g>
			<path style="fill:#99DFF9;" d="M14.721,58.921l-3.976-1.037l0.011-0.074l3.37,0.076l-0.001,0.036l0.033-0.018L14.721,58.921z
				 M11.074,57.892l3.496,0.912l-0.468-0.844L11.074,57.892z"/>
		</g>
		<g>
			<path style="fill:#99DFF9;" d="M14.186,57.962l-0.063-0.002l-3.47-0.077l1.374-1.138l2.125,1.15L14.186,57.962z M10.856,57.812
				l3.114,0.07l-1.934-1.046L10.856,57.812z"/>
		</g>
		<g>
			<path style="fill:#99DFF9;" d="M14.646,58.899l-0.007-0.074l11.02-1.712l-1.485,1.475l-0.026-0.025l0,0.037L14.646,58.899z
				 M25.442,57.223l-10.187,1.583l8.876-0.281L25.442,57.223z"/>
		</g>
		<g>
			<path style="fill:#99DFF9;" d="M14.623,58.9l-0.565-1.019l10.092,0.643L24.148,58.6L14.623,58.9z M14.19,57.965l0.477,0.859
				l8.694-0.275L14.19,57.965z"/>
		</g>
		<g>
			<path style="fill:#99DFF9;" d="M26.911,58.297l-1.423-1.131l6.222-4.331l0.05,0.056L26.911,58.297z M25.613,57.17l1.289,1.024
				l4.585-5.113L25.613,57.17z"/>
		</g>
		<g>
			<path style="fill:#99DFF9;" d="M24.17,58.592l-0.049-0.057l1.403-1.394l6.185-4.307l0.044,0.061L24.17,58.592z M30.045,54.085
				l-4.473,3.113l-1.013,1.007L30.045,54.085z"/>
		</g>
		<g>
			<path style="fill:#99DFF9;" d="M33.32,60.347l-0.053-0.018l-6.436-2.068l6.039-5.207L33.32,60.347z M26.981,58.23l6.256,2.011
				l-0.434-7.031L26.981,58.23z"/>
		</g>
		<g>
			<path style="fill:#99DFF9;" d="M26.931,58.273l-0.053-0.053l4.839-5.396l1.141,0.273l0.029,0.039l-0.026,0.023L26.931,58.273z
				 M31.744,52.907l-4.418,4.927l5.431-4.684L31.744,52.907z"/>
		</g>
		<g>
			<path style="fill:#99DFF9;" d="M33.155,60.35l6.73-5.753v0.072l2.413,4.317L33.155,60.35z M39.836,54.737l-6.434,5.5l8.776-1.31
				L39.836,54.737z"/>
		</g>
		<g>
			<path style="fill:#99DFF9;" d="M33.246,60.371l-0.45-7.287l7.04,1.555l0.048-0.041l0,0.052l0.043,0.009l-0.043,0.038v0.029
				l-0.028-0.006L33.246,60.371z M32.877,53.179l0.435,7.037l6.453-5.517L32.877,53.179z"/>
		</g>
		<g>
			<path style="fill:#99DFF9;" d="M42.24,58.994l-0.019-0.071l9.11-4.575l0.051-0.044l0.012,0.096l-0.021,0.011l-5.129,4.43
				l-0.013,0.001L42.24,58.994z M51.099,54.549l-8.689,4.364l3.806-0.148L51.099,54.549z"/>
		</g>
		<g>
			<path style="fill:#99DFF9;" d="M42.223,59.007l-2.439-4.363l0.062-0.002l11.542-0.302l0.008,0.06l-0.024,0.013L42.223,59.007z
				 M39.91,54.715l2.343,4.192l8.935-4.487L39.91,54.715z"/>
		</g>
		<g>
			<path style="fill:#99DFF9;" d="M46.091,58.854l0.118-0.082l9.996-6.969l0.052,0.053l-0.01-0.008l0.009,0.01l-5.6,6.555
				L46.091,58.854z M56.007,52.032l-9.637,6.72l4.248-0.411L56.007,52.032z"/>
		</g>
		<g>
			<path style="fill:#99DFF9;" d="M46.252,58.834l-0.047-0.06l5.124-4.425l4.88-2.549l0.047,0.056l-0.008,0.008L46.252,58.834z
				 M55.723,52.139l-4.351,2.272l-4.568,3.946L55.723,52.139z"/>
		</g>
		<g>
			<path style="fill:#99DFF9;" d="M54.612,58.85l-0.007-0.001l-3.973-0.434l-0.001-0.074l12.866-1.817l0.033,0.066l-0.046,0.012
				L54.612,58.85z M50.938,58.372l3.668,0.401l8.188-2.075L50.938,58.372z"/>
		</g>
		<g>
			<path style="fill:#99DFF9;" d="M50.543,58.428l5.676-6.644l0.028,0.019l7.332,4.784L50.543,58.428z M56.233,51.884l-5.504,6.442
				l12.642-1.785L56.233,51.884z"/>
		</g>
		<g>
			<path style="fill:#99DFF9;" d="M69.825,64.646l-0.097-0.037l-15.192-5.785l0.049-0.041l8.173-6.845L69.825,64.646z
				 M54.683,58.799l14.977,5.703l-6.924-12.448L54.683,58.799z"/>
		</g>
		<g>
			<path style="fill:#99DFF9;" d="M54.619,58.848l-0.034-0.065l8.188-6.858l0.744,4.668l-0.033,0.009L54.619,58.848z M62.72,52.067
				l-7.96,6.667l8.673-2.198L62.72,52.067z"/>
		</g>
		<g>
			<path style="fill:#99DFF9;" d="M26.947,65.87l-0.056-0.016l-9.953-2.703l0.065-0.046l8.574-6.003l0.01,0.06L26.947,65.87z
				 M17.113,63.121l9.742,2.646l-1.333-8.533L17.113,63.121z"/>
		</g>
		<g>
			<path style="fill:#99DFF9;" d="M17.013,63.191l-2.427-4.357l0.053-0.009l10.905-1.694l0.027,0.068L17.013,63.191z M14.705,58.892
				l2.333,4.189l8.358-5.852L14.705,58.892z"/>
		</g>
		<g>
			<path style="fill:#99DFF9;" d="M33.3,70.905l-6.437-5.068v-0.019l0.005-7.573l0.071-0.017l6.417,12.631L33.3,70.905z
				 M26.939,65.801l6.273,4.94l-6.269-12.339L26.939,65.801z"/>
		</g>
		<g>
			<path style="fill:#99DFF9;" d="M26.864,65.824l-1.366-8.746l1.446,1.149v0.018l-0.005,7.573L26.864,65.824z M25.602,57.258
				l1.261,8.076l0.005-7.07L25.602,57.258z"/>
		</g>
		<g>
			<path style="fill:#99DFF9;" d="M33.362,71.006l-3.041-4.736l2.923-5.992l0.072,0.016L33.362,71.006z M30.408,66.265l2.878,4.482
				l-0.044-10.292L30.408,66.265z"/>
		</g>
		<g>
			<path style="fill:#99DFF9;" d="M33.29,70.894l-6.458-12.712l6.458,2.076l-0.009,0.027l0.035,0.008l0.044,10.583L33.29,70.894z
				 M26.981,58.309l6.304,12.409l-0.044-10.396L26.981,58.309z"/>
		</g>
		<g>
			<path style="fill:#99DFF9;" d="M41.392,68.127l-0.04-0.007l-11.093-1.832l0.085-0.053l11.938-7.351L41.392,68.127z M30.47,66.247
				l10.855,1.793l0.869-9.012L30.47,66.247z"/>
		</g>
		<g>
			<path style="fill:#99DFF9;" d="M30.274,66.367l2.979-6.107l0.02-0.003l8.979-1.34l0.047,0.047l-0.04,0.025L30.274,66.367z
				 M33.304,60.328l-2.849,5.839l11.608-7.146L33.304,60.328z"/>
		</g>
		<g>
			<path style="fill:#99DFF9;" d="M41.267,68.177l4.937-9.4l0.062,0.04l-3.226,8.387L41.267,68.177z M45.963,59.394L41.45,67.99
				l1.53-0.84L45.963,59.394z"/>
		</g>
		<g>
			<path style="fill:#99DFF9;" d="M41.392,68.101l-0.071-0.021l0.883-9.159l4.122-0.159l-0.064,0.063L41.392,68.101z M42.272,58.993
				l-0.858,8.902l4.752-9.053L42.272,58.993z"/>
		</g>
		<g>
			<path style="fill:#99DFF9;" d="M43.039,67.201l-0.064-0.038l3.229-8.396l4.414-0.427l0.028-0.031l0.014,0.027l0.067-0.006
				l-0.045,0.051l0.013,0.027l-0.04,0.004L43.039,67.201z M46.257,58.838l-3.135,8.151l7.423-8.566L46.257,58.838z"/>
		</g>
		<g>
			<path style="fill:#99DFF9;" d="M23.736,73.783l-0.038-0.063l5.288-5.194l4.38,2.331l-0.012,0.049l-0.021,0.006L23.736,73.783z
				 M29,68.618l-5.141,5.05l9.366-2.802L29,68.618z"/>
		</g>
		<g>
			<path style="fill:#99DFF9;" d="M23.661,73.806l3.224-8.048l6.481,5.104l-0.011,0.044l-0.021,0.006L23.661,73.806z M26.917,65.879
				l-3.128,7.811l9.454-2.828L26.917,65.879z"/>
		</g>
		<g>
			<path style="fill:#99DFF9;" d="M33.433,70.977l-4.492-2.39l1.422-2.392L33.433,70.977z M29.046,68.558l4.168,2.218l-2.849-4.437
				L29.046,68.558z"/>
		</g>
		<g>
			<path style="fill:#99DFF9;" d="M42.352,73.08l-1.037-5.017l1.658-0.91l0.009-0.085l0.039,0.059l0.033-0.018l-0.006,0.058
				l0.015,0.022L43.045,67.2l-0.619,5.877L42.352,73.08z M41.401,68.103l0.976,4.725l0.587-5.583L41.401,68.103z"/>
		</g>
		<g>
			<path style="fill:#99DFF9;" d="M60.965,19.2l-0.042-0.06l6.443-6.996l0.028,0.032l2.835,3.264L60.965,19.2z M67.365,12.258
				l-6.273,6.81l9.012-3.657L67.365,12.258z"/>
		</g>
		<g>
			<path style="fill:#99DFF9;" d="M70.169,15.463l-0.008-0.074l7.271-1.068l0.001,0.001l0.014,0.039l0.019,0.023l-0.015,0.01
				l-1.177,0.697L70.169,15.463z M77.256,14.422l-6.21,0.912l5.214-0.318L77.256,14.422z"/>
		</g>
		<g>
			<path style="fill:#99DFF9;" d="M70.151,15.466l-2.888-3.325l10.25,2.194l-0.058,0.057l-0.013,0.002L70.151,15.466z
				 M67.468,12.261l2.714,3.125l7.046-1.035L67.468,12.261z"/>
		</g>
		<g>
			<path style="fill:#99DFF9;" d="M85.028,15.768l-8.761-0.677l-0.001-0.075l6.985-0.83l-0.011,0.033L85.028,15.768z M76.655,15.045
				l8.151,0.63l-1.622-1.406L76.655,15.045z"/>
		</g>
		<g>
			<path style="fill:#99DFF9;" d="M76.275,15.09l-0.023-0.069l1.175-0.7l0.01,0l5.757-0.127l0.059-0.007l-0.027,0.082l-0.026,0l0,0
				L76.275,15.09z M77.448,14.394l-1.007,0.6l5.975-0.709L77.448,14.394z"/>
		</g>
		<g>
			<path style="fill:#99DFF9;" d="M59.102,25.169l-0.591-2.087l2.408-3.936l0.068,0.031L59.102,25.169z M58.592,23.093l0.513,1.812
				l1.717-5.458L58.592,23.093z"/>
		</g>
		<g>
			<path style="fill:#99DFF9;" d="M71.526,27.801l-12.504-2.744l11.119-9.66l0.029,0.028l0.033-0.003L71.526,27.801z M59.185,25.016
				l12.256,2.689l-1.304-12.203L59.185,25.016z"/>
		</g>
		<g>
			<path style="fill:#99DFF9;" d="M59.027,25.152l1.893-6.015l0.017-0.007l9.216-3.74l0.027,0.045l0.017,0.013l-0.017-0.012
				l0.012,0.017L59.027,25.152z M60.981,19.193l-1.802,5.727l10.792-9.375L60.981,19.193z"/>
		</g>
		<g>
			<path style="fill:#99DFF9;" d="M71.519,27.766l-0.073-0.013l-0.087-6.315l0.008-0.01l4.87-6.393l0.008-0.02h0.102l-0.043,0.056
				L71.519,27.766z M71.435,21.463l0.084,6.09l4.626-12.272L71.435,21.463z"/>
		</g>
		<g>
			<path style="fill:#99DFF9;" d="M71.519,27.766l-0.073-0.009l-1.322-12.366l0.04-0.002l6.162-0.377l-0.02,0.054L71.519,27.766z
				 M70.208,15.461l1.296,12.13l4.711-12.497L70.208,15.461z"/>
		</g>
		<g>
			<path style="fill:#99DFF9;" d="M77.496,25.983l-6.175-4.542l13.616-5.771l0.023,0.055l-0.012,0.017L77.496,25.983z
				 M71.473,21.459l6.007,4.418l7.328-10.069L71.473,21.459z"/>
		</g>
		<g>
			<path style="fill:#99DFF9;" d="M71.281,21.541l4.972-6.527l0.021,0.001l8.636,0.668l0.027-0.011l0.037,0.091l-0.052-0.004
				L71.281,21.541z M76.289,15.092l-4.776,6.269l13.248-5.614L76.289,15.092z"/>
		</g>
		<g>
			<path style="fill:#99DFF9;" d="M92.33,22.081l-1.921-0.692l-0.394-1.319l2.352,1.947L92.33,22.081z M90.472,21.331l1.682,0.606
				l-1.994-1.651L90.472,21.331z"/>
		</g>
		<g>
			<path style="fill:#99DFF9;" d="M109.821,28.04l-10.292-0.886l8.341-11.988l0.027,0.019l0.041-0.003L109.821,28.04z M99.665,27.09
				l10.067,0.867l-1.854-12.67L99.665,27.09z"/>
		</g>
		<g>
			<path style="fill:#99DFF9;" d="M109.733,28.04l0.006-0.046l1.254-10.913l0.058,0.078l7.306,9.988L109.733,28.04z M111.047,17.281
				l-1.228,10.674l8.399-0.87L111.047,17.281z"/>
		</g>
		<g>
			<path style="fill:#99DFF9;" d="M109.739,28.003l-1.888-12.893l3.209,2.052l-1.246,10.84L109.739,28.003z M107.95,15.263
				l1.822,12.444l1.207-10.506L107.95,15.263z"/>
		</g>
		<g>
			<path style="fill:#99DFF9;" d="M118.323,27.129l-0.073-0.009l-0.262-3.08l1.97-1.566L118.323,27.129z M118.067,24.072
				l0.243,2.866l1.49-4.243L118.067,24.072z"/>
		</g>
		<g>
			<path style="fill:#99DFF9;" d="M118.3,27.197l-0.043-0.058l-7.268-9.936l0.051-0.054l8.885,5.419l-0.01,0.029L118.3,27.197z
				 M111.162,17.312l7.113,9.725l1.559-4.436L111.162,17.312z"/>
		</g>
		<g>
			<polygon style="fill:#99DFF9;" points="120,23.297 118.015,24.021 118.04,24.091 120,23.446 			"/>
		</g>
		<g>
			<polygon style="fill:#99DFF9;" points="120,23.297 118.232,23.941 119.894,22.62 120,22.605 120,22.529 119.874,22.547 
				119.864,22.548 118.005,24.026 118.041,24.091 120,23.377 			"/>
		</g>
		<g>
			<path style="fill:#99DFF9;" d="M61.024,32.632l-1.982-7.68l2.98,1.935l-0.004,0.024l-0.92,5.718L61.024,32.632z M59.164,25.121
				l1.889,7.318l0.888-5.516L59.164,25.121z"/>
		</g>
		<g>
			<path style="fill:#99DFF9;" d="M61.077,32.657l-0.043-0.06l4.413-4.399l0.014-0.001l6.02-0.481l0.02,0.071L61.077,32.657z
				 M65.48,28.27l-4.24,4.228l10.042-4.692L65.48,28.27z"/>
		</g>
		<g>
			<path style="fill:#99DFF9;" d="M61.036,32.676l-1.984-7.69L59.111,25l12.381,2.716l-0.008,0.033l0.016,0.038L61.036,32.676z
				 M59.155,25.086l1.932,7.483l10.28-4.804L59.155,25.086z"/>
		</g>
		<g>
			<path style="fill:#99DFF9;" d="M77.585,31.752l-12.189-3.499l6.006-6.866l0.027,0.044L77.585,31.752z M65.531,28.214
				l11.892,3.413l-6.031-10.113L65.531,28.214z"/>
		</g>
		<g>
			<path style="fill:#99DFF9;" d="M65.375,28.279l6.059-6.927l0.089,6.435L65.375,28.279z M71.36,21.55l-5.808,6.639l5.893-0.471
				L71.36,21.55z"/>
		</g>
		<g>
			<path style="fill:#99DFF9;" d="M85.347,33.939l-7.881-2.221l-0.016-5.825h0.054l0.012,0.011L85.347,33.939z M77.541,31.662
				l7.556,2.129l-7.57-7.768L77.541,31.662z"/>
		</g>
		<g>
			<path style="fill:#99DFF9;" d="M77.542,31.827L71.364,21.47l0.056-0.049l6.183,4.547h-0.077L77.542,31.827z M71.524,21.591
				l5.941,9.961L77.45,25.95L71.524,21.591z"/>
		</g>
		<g>
			<path style="fill:#99DFF9;" d="M85.255,33.882l-0.068-0.032l5.218-12.501l0.004-0.014l0.112-0.069l-0.045,0.108l0,0l-1.832,6.042
				L85.255,33.882z M90.187,22.066l-4.599,11.018l2.985-5.695L90.187,22.066z"/>
		</g>
		<g>
			<path style="fill:#99DFF9;" d="M85.234,33.932l-0.04-0.041l-7.774-7.976l0.056-0.02l12.952-4.57l0.1-0.061l-0.052,0.111
				L85.234,33.932z M77.556,25.947l7.653,7.851l5.165-12.375L77.556,25.947z"/>
		</g>
		<g>
			<path style="fill:#99DFF9;" d="M92.461,28.115l-3.918-0.683l3.838-5.507v0.12L92.461,28.115z M88.672,27.378l3.713,0.647
				l-0.078-5.862L88.672,27.378z"/>
		</g>
		<g>
			<path style="fill:#99DFF9;" d="M88.639,27.427l-0.067-0.032l1.845-6.083l1.985,0.715L88.639,27.427z M90.465,21.409l-1.752,5.779
				l3.571-5.124L90.465,21.409z"/>
		</g>
		<g>
			<path style="fill:#99DFF9;" d="M104.191,30.606l-11.776-2.5l0.003-0.074l7.175-0.948l0.004,0.033l0.023-0.026l4.602,3.448
				L104.191,30.606z M92.644,28.079l11.396,2.419l-4.453-3.337L92.644,28.079z"/>
		</g>
		<g>
			<path style="fill:#99DFF9;" d="M92.386,28.113l-0.082-6.141l7.315,5.119l0.054,0.054l-0.07,0.014L92.386,28.113z M92.382,22.119
				l0.078,5.909l7.038-0.931L92.382,22.119z"/>
		</g>
		<g>
			<path style="fill:#99DFF9;" d="M110.18,32.272l-6.09-1.694l5.666-2.612l0.052-0.043l0.007,0.071L110.18,32.272z M104.308,30.561
				l5.788,1.61l-0.352-4.117L104.308,30.561z"/>
		</g>
		<g>
			<path style="fill:#99DFF9;" d="M104.194,30.613l-4.725-3.54l10.401,0.895l-0.079,0.064L104.194,30.613z M99.725,27.17
				l4.479,3.355l5.43-2.503L99.725,27.17z"/>
		</g>
		<g>
			<path style="fill:#99DFF9;" d="M110.142,32.259l-0.024-0.069l8.15-5.105l0.048,0.058l-4.537,4.734L110.142,32.259z
				 M118.052,27.308l-7.757,4.859l3.448-0.362L118.052,27.308z"/>
		</g>
		<g>
			<path style="fill:#99DFF9;" d="M110.105,32.287l-0.369-4.322l8.671-0.898l-0.096,0.079L110.105,32.287z M109.817,28.031
				l0.353,4.126l7.961-4.987L109.817,28.031z"/>
		</g>
		<g>
			<path style="fill:#99DFF9;" d="M116.559,33.637l-2.848-1.783l4.284-7.816l0.07,0.024L116.559,33.637z M113.81,31.828l2.692,1.685
				l1.455-9.249L113.81,31.828z"/>
		</g>
		<g>
			<path style="fill:#99DFF9;" d="M113.788,31.867l-0.061-0.044l4.327-7.895l0.272,3.203L113.788,31.867z M118.001,24.184
				l-4.07,7.425l4.318-4.506L118.001,24.184z"/>
		</g>
		<g>
			<polygon style="fill:#99DFF9;" points="120,32.455 116.653,33.498 120,29.881 120,29.771 116.407,33.653 120,32.533 			"/>
		</g>
		<g>
			<polygon style="fill:#99DFF9;" points="120,29.771 116.587,33.458 118.061,24.084 120,23.445 120,23.367 118.016,24.02 
				117.994,24.027 116.474,33.691 120,29.881 			"/>
		</g>
		<g>
			<path style="fill:#99DFF9;" d="M59.9,39.9l-3.668-1.283l4.89-6.13L59.9,39.9z M56.357,38.581l3.483,1.218l1.161-7.04
				L56.357,38.581z"/>
		</g>
		<g>
			<path style="fill:#99DFF9;" d="M59.808,39.893l5.632-11.697h0.044l0.011,0.016l7.592,10.429L59.808,39.893z M65.471,28.307
				l-5.537,11.499l13.014-1.227L65.471,28.307z"/>
		</g>
		<g>
			<path style="fill:#99DFF9;" d="M59.905,39.866l-0.071-0.022l1.193-7.238l0.008-0.008l4.398-4.384l0.007-0.016h0.115l-0.06,0.06
				L59.905,39.866z M61.097,32.641l-1.146,6.956l5.383-11.18L61.097,32.641z"/>
		</g>
		<g>
			<path style="fill:#99DFF9;" d="M78.819,40.554l-5.86-1.924l0.026-0.041l4.541-7.004L78.819,40.554z M73.075,38.589l5.651,1.856
				l-1.246-8.651L73.075,38.589z"/>
		</g>
		<g>
			<path style="fill:#99DFF9;" d="M73.019,38.676l-0.032-0.044l-7.617-10.464l12.193,3.5L73.019,38.676z M65.559,28.3l7.457,10.243
				l4.429-6.831L65.559,28.3z"/>
		</g>
		<g>
			<path style="fill:#99DFF9;" d="M78.792,40.532l-0.046-0.059l6.448-6.635l0.06,0.046l-2.872,4.6l-0.009,0.004L78.792,40.532z
				 M85.003,34.144l-6.018,6.191l3.342-1.906L85.003,34.144z"/>
		</g>
		<g>
			<path style="fill:#99DFF9;" d="M78.746,40.581l-1.288-8.943l7.835,2.208L78.746,40.581z M77.549,31.742l1.251,8.677l6.352-6.534
				L77.549,31.742z"/>
		</g>
		<g>
			<path style="fill:#99DFF9;" d="M82.381,38.483l-0.06-0.045l6.25-11.045l0.006-0.046l0.083,0.042l-0.017,0.028l-0.756,5.494
				l-0.009,0.009L82.381,38.483z M88.543,27.596l-6.017,10.633l5.29-5.353L88.543,27.596z"/>
		</g>
		<g>
			<path style="fill:#99DFF9;" d="M82.387,38.477l-0.065-0.038l6.253-11.05l0.017-0.033l0.069,0.035l-0.025,0.042l-3.381,6.45
				L82.387,38.477z M87.482,29.471l-4.238,7.489l1.945-3.115L87.482,29.471z"/>
		</g>
		<g>
			<path style="fill:#99DFF9;" d="M94.713,35.833l-6.925-2.926l4.652-4.911l0.019,0.063L94.713,35.833z M87.917,32.88l6.68,2.822
				l-2.191-7.559L87.917,32.88z"/>
		</g>
		<g>
			<path style="fill:#99DFF9;" d="M87.799,33.005l0.776-5.644l3.923,0.684L87.799,33.005z M88.64,27.449l-0.733,5.334l4.441-4.688
				L88.64,27.449z"/>
		</g>
		<g>
			<path style="fill:#99DFF9;" d="M96.591,40.534l-1.984-4.782l9.566-5.21l0.063-0.083v0.133l-0.013,0.007L96.591,40.534z
				 M94.702,35.785l1.908,4.6l7.45-9.697L94.702,35.785z"/>
		</g>
		<g>
			<path style="fill:#99DFF9;" d="M94.631,35.824l-2.262-7.803l11.867,2.519v0.053l-0.02,0.011L94.631,35.824z M92.477,28.12
				l2.201,7.593l9.414-5.127L92.477,28.12z"/>
		</g>
		<g>
			<path style="fill:#99DFF9;" d="M96.61,40.495l-0.029-0.068l13.536-8.237l0.039-0.038l0.016,0.054l1.847,3.968l-0.042,0.012
				L96.61,40.495z M110.12,32.275L96.853,40.35l15.06-4.224L110.12,32.275z"/>
		</g>
		<g>
			<path style="fill:#99DFF9;" d="M96.62,40.491l-0.05-0.055l7.614-9.91l0.024,0.007l6.001,1.669l-0.046,0.045L96.62,40.491z
				 M104.213,30.613l-7.46,9.709l13.291-8.087L104.213,30.613z"/>
		</g>
		<g>
			<path style="fill:#99DFF9;" d="M111.962,36.259l-0.695-2.136l2.479-2.319h0.071l-0.021,0.052L111.962,36.259z M111.353,34.145
				l0.617,1.896l1.688-4.054L111.353,34.145z"/>
		</g>
		<g>
			<path style="fill:#99DFF9;" d="M111.968,36.244l-1.887-4.054l3.676-0.386h0.057l-0.018,0.052L111.968,36.244z M110.193,32.253
				l1.771,3.803l1.738-4.172L110.193,32.253z"/>
		</g>
		<g>
			<polygon style="fill:#99DFF9;" points="120,36.31 111.521,34.149 116.522,33.613 120,35.458 120,35.373 116.567,33.553 
				116.567,33.533 111.307,34.097 111.301,34.17 120,36.387 			"/>
		</g>
		<g>
			<path style="fill:#99DFF9;" d="M111.203,34.183l2.553-2.39l2.783,1.743l0.028-0.003v0.021l0.074,0.046l-0.074,0.008v0.035
				l-0.047-0.029L111.203,34.183z M113.766,31.888l-2.348,2.196l5-0.535L113.766,31.888z"/>
		</g>
		<g>
			<polygon style="fill:#99DFF9;" points="120,35.373 116.627,33.584 120,32.533 120,32.455 116.433,33.566 120,35.458 			"/>
		</g>
		<g>
			<path style="fill:#99DFF9;" d="M67.948,45.823l-14.483-6.979l0.023-0.071l6.389,1.039l-0.004,0.023l0.02-0.017l8.094,5.939
				L67.948,45.823z M53.731,38.889l13.883,6.69l-7.758-5.694L53.731,38.889z"/>
		</g>
		<g>
			<path style="fill:#99DFF9;" d="M67.875,45.852l5.156-7.328l1.607,5.572l-0.037,0.01L67.875,45.852z M73.003,38.696l-4.948,7.032
				l6.49-1.686L73.003,38.696z"/>
		</g>
		<g>
			<path style="fill:#99DFF9;" d="M67.974,45.842l-8.205-6.021l13.266-1.251l0.03,0.038l-0.017,0.023L67.974,45.842z M59.972,39.877
				l7.984,5.859l4.983-7.082L59.972,39.877z"/>
		</g>
		<g>
			<path style="fill:#99DFF9;" d="M74.536,44.166l0.511-2.868l3.718-0.835v0.002l0.032,0.063L74.536,44.166z M75.112,41.36
				l-0.465,2.612l3.985-3.402L75.112,41.36z"/>
		</g>
		<g>
			<path style="fill:#99DFF9;" d="M74.571,44.136l-1.61-5.584l5.824,1.912l-0.007,0.042l0.019,0.022L74.571,44.136z M73.073,38.667
				l1.539,5.334l4.085-3.488L73.073,38.667z"/>
		</g>
		<g>
			<path style="fill:#99DFF9;" d="M80.977,42.804l-6.021-1.467l7.459-2.945L80.977,42.804z M75.203,41.32l5.723,1.394l1.368-4.193
				L75.203,41.32z"/>
		</g>
		<g>
			<path style="fill:#99DFF9;" d="M75.088,41.365l-0.022-0.071l7.275-2.872l0.032,0.067l-3.592,2.047L75.088,41.365z M81.878,38.685
				l-6.336,2.501l3.217-0.722L81.878,38.685z"/>
		</g>
		<g>
			<path style="fill:#99DFF9;" d="M87.894,46.698l-6.998-3.927l0.023-0.034l6.941-9.922l0.029,0.079L87.894,46.698z M81.006,42.747
				l6.813,3.823l-0.005-13.557L81.006,42.747z"/>
		</g>
		<g>
			<path style="fill:#99DFF9;" d="M80.982,42.781l-0.067-0.033l1.406-4.311l0.006-0.006l5.495-5.56l0.039-0.056l0.035,0.087
				l-0.016,0.016L80.982,42.781z M82.388,38.477l-1.322,4.053l6.501-9.292L82.388,38.477z"/>
		</g>
		<g>
			<path style="fill:#99DFF9;" d="M87.889,46.654l-0.067-0.032l2.058-5.817l0.006-0.005l4.742-5.057l0.003,0.003l0.057,0.042
				L87.889,46.654z M89.945,40.845l-1.938,5.479l6.41-10.247L89.945,40.845z"/>
		</g>
		<g>
			<path style="fill:#99DFF9;" d="M87.819,46.766l-0.005-13.928l6.915,2.921l-0.047,0.035L87.819,46.766z M87.891,32.951
				l0.004,13.552l6.704-10.717L87.891,32.951z"/>
		</g>
		<g>
			<path style="fill:#99DFF9;" d="M103.134,42.781l-13.228-1.919l0.004-0.075l6.695-0.366l0.008,0.002l6.538,2.285L103.134,42.781z
				 M90.29,40.842l12.469,1.81l-6.164-2.154L90.29,40.842z"/>
		</g>
		<g>
			<path style="fill:#99DFF9;" d="M89.82,40.867l4.847-5.167l1.988,4.794L89.82,40.867z M94.642,35.836l-4.638,4.946l6.541-0.357
				L94.642,35.836z"/>
		</g>
		<g>
			<path style="fill:#99DFF9;" d="M103.155,42.778l-0.039-0.064l8.827-6.594l0.115-0.058l-0.06,0.107l-2.055,3.41l-0.011,0.005
				L103.155,42.778z M111.836,36.294l-8.376,6.258l6.432-3.031L111.836,36.294z"/>
		</g>
		<g>
			<path style="fill:#99DFF9;" d="M103.145,42.786l-6.67-2.33l15.48-4.341l0.027,0.069L103.145,42.786z M96.726,40.463l6.407,2.239
				l8.649-6.461L96.726,40.463z"/>
		</g>
		<g>
			<path style="fill:#99DFF9;" d="M116.501,43.602l-6.627-4.034l1.424-5.536L116.501,43.602z M109.961,39.532l6.341,3.86
				l-4.979-9.156L109.961,39.532z"/>
		</g>
		<g>
			<path style="fill:#99DFF9;" d="M109.95,39.569l-0.069-0.029l1.391-5.405l-0.002-0.006l0.006-0.01l0.03-0.12l0.702,2.156
				l-0.009,0.015L109.95,39.569z M111.314,34.269l-1.296,5.041l1.906-3.164L111.314,34.269z"/>
		</g>
		<g>
			<polygon style="fill:#99DFF9;" points="120,42.742 116.528,43.433 120,40.309 120,40.208 116.274,43.561 120,42.818 			"/>
		</g>
		<g>
			<polygon style="fill:#99DFF9;" points="120,40.208 116.412,43.437 111.385,34.191 120,36.387 120,36.31 111.236,34.076 
				116.392,43.557 120,40.309 			"/>
		</g>
		<g>
			<path style="fill:#99DFF9;" d="M55.713,51.95l-0.034-0.067l12.697-6.507l0.042,0.061l-0.444,0.396l-0.006-0.003L55.713,51.95z
				 M68.147,45.577l-6.031,3.091l5.828-2.91L68.147,45.577z"/>
		</g>
		<g>
			<path style="fill:#99DFF9;" d="M69.17,50.233l-0.82-4.853l0.035-0.008l6.325-1.367l-0.091,0.09L69.17,50.233z M68.436,45.438
				l0.781,4.629l5.27-5.936L68.436,45.438z"/>
		</g>
		<g>
			<path style="fill:#99DFF9;" d="M67.975,45.825l-0.034-0.063l0.435-0.388l0.01-0.002l6.324-1.367l-0.098,0.098l-0.01,0.003
				L67.975,45.825z M68.411,45.443l-0.305,0.271l4.712-1.224L68.411,45.443z"/>
		</g>
		<g>
			<path style="fill:#99DFF9;" d="M69.213,50.182l-0.051-0.053l5.893-8.831l0.066-0.022l-0.004,0.056l-0.432,5.635l-0.017,0.01
				L69.213,50.182z M75.031,41.469l-5.715,8.565l5.297-3.112L75.031,41.469z"/>
		</g>
		<g>
			<path style="fill:#99DFF9;" d="M69.222,50.175l-0.06-0.046l5.893-8.831l0.073-0.024l-0.011,0.062l-0.49,2.75l-0.007,0.008
				L69.222,50.175z M75.011,41.5l-5.482,8.216l5.028-5.664L75.011,41.5z"/>
		</g>
		<g>
			<path style="fill:#99DFF9;" d="M74.655,46.981l-0.027-0.068l6.325-4.2l3.432,2.578L74.655,46.981z M80.95,42.806l-6.131,4.071
				l9.381-1.631L80.95,42.806z"/>
		</g>
		<g>
			<path style="fill:#99DFF9;" d="M74.605,47.019l0.439-5.737l5.927,1.446l0.047,0.031l-0.046,0.031L74.605,47.019z M75.114,41.376
				l-0.422,5.494l6.167-4.095L75.114,41.376z"/>
		</g>
		<g>
			<path style="fill:#99DFF9;" d="M89.057,52.053l-4.866-6.863l3.698,1.417l0.005,0.02l1.23,5.396L89.057,52.053z M84.395,45.348
				l4.613,6.507l-1.185-5.192L84.395,45.348z"/>
		</g>
		<g>
			<path style="fill:#99DFF9;" d="M87.954,46.712l-0.11-0.042l-3.574-1.371l-3.341-2.51l0.041-0.063l6.913,3.88L87.954,46.712z
				 M84.311,45.235l3.078,1.18l-5.964-3.346L84.311,45.235z"/>
		</g>
		<g>
			<path style="fill:#99DFF9;" d="M89.046,52.08l0.829-11.258l0.029,0.002L89.94,40.8l7.997,9.003l-0.06,0.015L89.046,52.08z
				 M89.943,40.917l-0.814,11.065l8.671-2.221L89.943,40.917z"/>
		</g>
		<g>
			<path style="fill:#99DFF9;" d="M89.051,52.039l-1.233-5.407l0.004-0.01l2.085-5.893l0.044,0.087v0.011l-0.825,11.207
				L89.051,52.039z M87.895,46.637l1.173,5.141l0.785-10.675L87.895,46.637z"/>
		</g>
		<g>
			<path style="fill:#99DFF9;" d="M97.786,49.828l0.052-0.069l5.264-7.026L103.1,42.63l0.04,0.052l0.036-0.048l0.001,0.098
				l0.01,0.013l-0.01,0.013l0.089,6.456l-0.034,0.004L97.786,49.828z M103.102,42.856l-5.151,6.878l5.238-0.589L103.102,42.856z"/>
		</g>
		<g>
			<path style="fill:#99DFF9;" d="M97.871,49.841l-8.056-9.068l13.345,1.937l0.026,0.035l-0.017,0.023L97.871,49.841z
				 M90.009,40.876l7.857,8.845l5.205-6.949L90.009,40.876z"/>
		</g>
		<g>
			<path style="fill:#99DFF9;" d="M103.153,49.22l6.803-9.791v0.121l-1.32,9.467L103.153,49.22z M109.858,39.701l-6.558,9.438
				l5.269-0.194L109.858,39.701z"/>
		</g>
		<g>
			<path style="fill:#99DFF9;" d="M103.191,49.297l-0.091-6.576l0.022-0.01l6.906-3.254L103.191,49.297z M103.177,42.768
				l0.087,6.293l6.543-9.418L103.177,42.768z"/>
		</g>
		<g>
			<path style="fill:#99DFF9;" d="M115.899,53.096l-7.367-4.112l0.049-0.034l7.808-5.49h0.052l-0.002,0.04L115.899,53.096z
				 M108.673,48.977l7.158,3.995l0.528-9.399L108.673,48.977z"/>
		</g>
		<g>
			<path style="fill:#99DFF9;" d="M108.554,49.061l1.335-9.573l0.049,0.03l6.598,4.016h-0.122L108.554,49.061z M109.947,39.612
				l-1.295,9.288l7.681-5.4L109.947,39.612z"/>
		</g>
		<g>
			<polygon style="fill:#99DFF9;" points="120,46.917 115.946,52.849 117.696,45.158 120,43.932 120,43.846 117.645,45.1 
				117.63,45.108 115.828,53.025 115.896,53.055 120,47.051 			"/>
		</g>
		<g>
			<polygon style="fill:#99DFF9;" points="120,46.917 115.911,52.9 116.437,43.528 120,42.818 120,42.742 116.394,43.46 
				116.365,43.466 115.828,53.031 115.82,53.166 120,47.051 			"/>
		</g>
		<g>
			<polygon style="fill:#99DFF9;" points="120,46.846 117.731,45.138 120,43.866 120,43.78 117.595,45.129 120,46.94 			"/>
		</g>
		<g>
			<polygon style="fill:#99DFF9;" points="120,43.78 117.644,45.101 117.681,45.166 120,43.931 			"/>
		</g>
		<g>
			<path style="fill:#99DFF9;" d="M58.772,53.063l9.659-7.732v0.093l-0.01,0.011l-6.62,7.454l-0.017,0.001L58.772,53.063z
				 M68.071,45.715l-9.068,7.26l2.762-0.16L68.071,45.715z"/>
		</g>
		<g>
			<path style="fill:#99DFF9;" d="M70.339,57.177l-11.575-4.163l10.461-2.911l0.007,0.042L70.339,57.177z M59.011,53.023
				l11.233,4.039l-1.081-6.865L59.011,53.023z"/>
		</g>
		<g>
			<path style="fill:#99DFF9;" d="M58.897,53.055l-0.034-0.065l9.556-7.649l0.811,4.804l-0.031,0.006l0.005,0.036L58.897,53.055z
				 M68.366,45.479l-9.312,7.455l10.096-2.811L68.366,45.479z"/>
		</g>
		<g>
			<path style="fill:#99DFF9;" d="M78.198,57.958l-7.961-0.807l0.02-0.047l4.397-10.268l0.031,0.097L78.198,57.958z M70.347,57.087
				l7.745,0.785l-3.448-10.819L70.347,57.087z"/>
		</g>
		<g>
			<path style="fill:#99DFF9;" d="M70.274,57.255l-1.122-7.124l0.022-0.014l5.542-3.256l-0.032,0.095L70.274,57.255z M69.235,50.169
				l1.073,6.816l4.261-9.949L69.235,50.169z"/>
		</g>
		<g>
			<path style="fill:#99DFF9;" d="M80.261,59.103l-2.165-1.172l0.016-0.032l6.146-12.642l0.018-0.06l0.063,0.063l-0.011,0.022
				L80.261,59.103z M78.194,57.899l2.021,1.093l3.913-13.299L78.194,57.899z"/>
		</g>
		<g>
			<path style="fill:#99DFF9;" d="M78.138,58.016l-0.028-0.09l-3.509-11.011l0.042-0.008l9.663-1.679l0.032,0.032l-0.011,0.024
				L78.138,58.016z M74.698,46.975l3.454,10.839l6.074-12.495L74.698,46.975z"/>
		</g>
		<g>
			<path style="fill:#99DFF9;" d="M90.306,59.727l-0.047-0.003l-10.121-0.646l0.076-0.06l8.901-7.057L90.306,59.727z M80.338,59.016
				l9.879,0.63l-1.157-7.545L80.338,59.016z"/>
		</g>
		<g>
			<path style="fill:#99DFF9;" d="M80.168,59.15l0.033-0.114l4.077-13.852l4.84,6.826l0.014,0.026l-0.021,0.024L80.168,59.15z
				 M84.307,45.354l-3.999,13.59l8.729-6.92L84.307,45.354z"/>
		</g>
		<g>
			<path style="fill:#99DFF9;" d="M90.284,59.716l-0.053-0.053l7.675-9.993v0.111l-0.024,4.228l-0.015,0.011L90.284,59.716z
				 M97.83,49.893l-7.371,9.598l7.348-5.52L97.83,49.893z"/>
		</g>
		<g>
			<path style="fill:#99DFF9;" d="M90.237,59.779l-0.014-0.088l-1.179-7.688l0.033-0.008l8.887-2.277L90.237,59.779z M89.13,52.059
				l1.155,7.534l7.487-9.748L89.13,52.059z"/>
		</g>
		<g>
			<path style="fill:#99DFF9;" d="M98.964,54.298l-1.198-0.288l0.054-0.048l5.38-4.808l0.011-0.013h0.115l-0.071,0.064
				L98.964,54.298z M97.923,53.97l1.014,0.244l3.919-4.651L97.923,53.97z"/>
		</g>
		<g>
			<path style="fill:#99DFF9;" d="M97.807,54.074l0.024-4.326l0.033-0.004l5.358-0.602h0.099l-0.068,0.065L97.807,54.074z
				 M97.906,49.814l-0.023,4.091l5.232-4.676L97.906,49.814z"/>
		</g>
		<g>
			<path style="fill:#99DFF9;" d="M105.984,55.847l-7.14-1.576l0.088-0.048l9.708-5.306l-0.003,0.077L105.984,55.847z M99.057,54.24
				l6.881,1.52l2.593-6.697L99.057,54.24z"/>
		</g>
		<g>
			<path style="fill:#99DFF9;" d="M98.969,54.288l-0.047-0.057l4.287-5.089l0.017-0.001l5.366-0.198l0.049-0.026v0.1l-0.028,0.001
				L98.969,54.288z M103.245,49.216l-4.137,4.91l9.336-5.103L103.245,49.216z"/>
		</g>
		<g>
			<path style="fill:#99DFF9;" d="M105.962,55.841l-0.012-0.074l9.932-2.776l1.654,2.548L105.962,55.841z M115.849,53.077
				l-9.586,2.681l11.137-0.291L115.849,53.077z"/>
		</g>
		<g>
			<path style="fill:#99DFF9;" d="M105.898,55.859l2.685-6.933l0.038,0.021l7.342,4.098L105.898,55.859z M108.622,49.034l-2.6,6.713
				l9.745-2.726L108.622,49.034z"/>
		</g>
		<g>
			<polygon style="fill:#99DFF9;" points="120,54.138 117.507,55.439 117.698,45.266 120,49.116 120,48.97 117.695,45.114 
				117.653,45.133 117.625,45.133 117.429,55.565 120,54.223 			"/>
		</g>
		<g>
			<path style="fill:#99DFF9;" d="M117.503,55.626l-1.678-2.585l0.003-0.016l1.828-8.032l0.045,0.141L117.503,55.626z
				 M115.905,53.026l1.527,2.352l0.186-9.88L115.905,53.026z"/>
		</g>
		<g>
			<polygon style="fill:#99DFF9;" points="120,48.97 117.794,45.278 120,46.94 120,46.846 117.685,45.104 117.631,45.152 
				120,49.116 			"/>
		</g>
		<g>
			<path style="fill:#99DFF9;" d="M62.072,60.638l-0.016-0.036l-3.204-7.568l0.063-0.04l5.957,6.351L62.072,60.638z M59.004,53.198
				l3.107,7.338l2.635-1.217L59.004,53.198z"/>
		</g>
		<g>
			<polygon style="fill:#99DFF9;" points="64.823,59.366 64.794,59.298 66.329,58.629 70.284,57.082 70.291,57.082 70.306,57.154 
				70.306,57.153 70.306,57.154 70.292,57.132 70.292,57.138 70.3,57.156 			"/>
		</g>
		<g>
			<path style="fill:#99DFF9;" d="M64.799,59.376l-0.017-0.019l-5.921-6.313l0.04-0.061l11.404,4.101l-0.009,0.047l0.01,0.023
				L64.799,59.376z M59.021,53.106l5.797,6.181l5.368-2.166L59.021,53.106z"/>
		</g>
		<g>
			<path style="fill:#99DFF9;" d="M76.882,59.01l-0.015-0.001L66.343,58.7l-0.001-0.074l11.801-0.748l0.002,0.033l0.024,0.032
				L76.882,59.01z M67.154,58.649l9.701,0.284l1.177-0.974L67.154,58.649z"/>
		</g>
		<g>
			<path style="fill:#99DFF9;" d="M66.347,58.7l-0.017-0.072l3.956-1.547l0.01,0.001l7.958,0.806l-0.096,0.063l-0.011,0.001
				L66.347,58.7z M70.297,57.157l-3.715,1.453l11.107-0.704L70.297,57.157z"/>
		</g>
		<g>
			<path style="fill:#99DFF9;" d="M80.834,60.045l-3.976-1.037l0.011-0.074l3.37,0.076l-0.001,0.036l0.032-0.017L80.834,60.045z
				 M77.188,59.017l3.495,0.911l-0.469-0.844L77.188,59.017z"/>
		</g>
		<g>
			<path style="fill:#99DFF9;" d="M80.3,59.086l-0.063-0.001l-3.471-0.078l1.374-1.137l2.126,1.149L80.3,59.086z M76.97,58.937
				l3.114,0.069l-1.935-1.046L76.97,58.937z"/>
		</g>
		<g>
			<path style="fill:#99DFF9;" d="M80.76,60.024l-0.007-0.075l11.02-1.712l-1.484,1.476l-0.026-0.026l0.001,0.037L80.76,60.024z
				 M91.556,58.347L81.369,59.93l8.876-0.28L91.556,58.347z"/>
		</g>
		<g>
			<path style="fill:#99DFF9;" d="M80.737,60.024l-0.565-1.019l10.092,0.643l-0.001,0.075L80.737,60.024z M80.304,59.089
				l0.478,0.859l8.693-0.274L80.304,59.089z"/>
		</g>
		<g>
			<path style="fill:#99DFF9;" d="M93.024,59.421l-1.423-1.131l6.221-4.331l0.051,0.056L93.024,59.421z M91.727,58.294l1.288,1.025
				l4.586-5.114L91.727,58.294z"/>
		</g>
		<g>
			<path style="fill:#99DFF9;" d="M90.284,59.716l-0.05-0.057l1.403-1.394l6.185-4.307l0.045,0.061L90.284,59.716z M96.163,55.206
				l-4.478,3.117l-1.012,1.006L96.163,55.206z"/>
		</g>
		<g>
			<path style="fill:#99DFF9;" d="M99.434,61.471l-0.053-0.018l-6.436-2.068l0.05-0.043l5.988-5.164l0.005,0.075L99.434,61.471z
				 M93.096,59.354l6.256,2.011l-0.435-7.031L93.096,59.354z"/>
		</g>
		<g>
			<path style="fill:#99DFF9;" d="M93.045,59.398l-0.053-0.054l4.839-5.396l1.128,0.271h0.101l-0.085,0.065L93.045,59.398z
				 M97.857,54.031l-4.418,4.927l5.432-4.684L97.857,54.031z"/>
		</g>
		<g>
			<path style="fill:#99DFF9;" d="M99.269,61.475l6.729-5.754v0.072l2.413,4.317L99.269,61.475z M105.95,55.861l-6.434,5.5
				l8.775-1.31L105.95,55.861z"/>
		</g>
		<g>
			<path style="fill:#99DFF9;" d="M99.359,61.495l-0.45-7.287l0.05,0.011l7.083,1.563l-0.057,0.049L99.359,61.495z M98.991,54.303
				l0.435,7.037l6.453-5.517L98.991,54.303z"/>
		</g>
		<g>
			<path style="fill:#99DFF9;" d="M108.353,60.118l-0.018-0.07l9.111-4.576l0.033-0.029l0.039,0.076l-0.03,0.016l-5.129,4.43
				l-0.014,0.001L108.353,60.118z M117.213,55.673l-8.689,4.364l3.807-0.147L117.213,55.673z"/>
		</g>
		<g>
			<path style="fill:#99DFF9;" d="M108.337,60.131l-0.019-0.031l-2.421-4.332l0.063-0.002l11.531-0.302l0.027,0.055l-0.033,0.017
				L108.337,60.131z M106.023,55.839l2.344,4.192l8.935-4.487L106.023,55.839z"/>
		</g>
		<g>
			<polygon style="fill:#99DFF9;" points="120,55.64 116.731,59.465 112.483,59.876 120,54.636 120,54.544 112.205,59.979 
				116.769,59.537 120,55.755 			"/>
		</g>
		<g>
			<polygon style="fill:#99DFF9;" points="120,54.544 112.917,59.481 117.485,55.535 120,54.223 120,54.139 117.443,55.474 
				112.319,59.898 112.366,59.958 120,54.636 			"/>
		</g>
		<g>
			<polygon style="fill:#99DFF9;" points="120,59.818 117.052,59.496 120,59.08 120,59.004 116.745,59.464 116.746,59.538 
				120,59.895 			"/>
		</g>
		<g>
			<polygon style="fill:#99DFF9;" points="120,59.004 116.844,59.45 120,55.755 120,55.64 116.657,59.552 120,59.08 			"/>
		</g>
		<g>
			<path style="fill:#99DFF9;" d="M59.154,64.071l-0.047-0.059l5.682-4.713l1.578-0.688l0.021,0.064l-0.021,0.017L59.154,64.071z
				 M64.829,59.364l-4.557,3.78l5.79-4.317L64.829,59.364z"/>
		</g>
		<g>
			<path style="fill:#99DFF9;" d="M93.061,66.994l-0.057-0.016l-9.952-2.703l8.59-6.014l0.053-0.052l0.006,0.076L93.061,66.994z
				 M83.227,64.245l9.742,2.646l-1.333-8.534L83.227,64.245z"/>
		</g>
		<g>
			<path style="fill:#99DFF9;" d="M83.127,64.315L80.7,59.958l0.053-0.009l11.02-1.712l-0.081,0.081L83.127,64.315z M80.818,60.016
				l2.334,4.19l8.358-5.851L80.818,60.016z"/>
		</g>
		<g>
			<path style="fill:#99DFF9;" d="M92.977,66.948l-1.365-8.745l1.445,1.149v0.018l-0.005,7.572L92.977,66.948z M91.717,58.382
				l1.261,8.076l0.005-7.07L91.717,58.382z"/>
		</g>
		<g>
			<path style="fill:#99DFF9;" d="M99.476,72.13l-3.04-4.736l0.009-0.019l2.914-5.974l0.068-0.103l0.004,0.118L99.476,72.13z
				 M96.521,67.389l2.878,4.482l-0.044-10.292L96.521,67.389z"/>
		</g>
		<g>
			<path style="fill:#99DFF9;" d="M99.403,72.018l-6.458-12.711l0.087,0.027l6.345,2.039l0.053-0.078l0.001,0.122L99.476,72
				L99.403,72.018z M93.095,59.433l6.304,12.409l-0.043-10.396L93.095,59.433z"/>
		</g>
		<g>
			<path style="fill:#99DFF9;" d="M96.388,67.491l2.979-6.107l9.006-1.344l0.028,0.055l-0.029,0.019L96.388,67.491z M99.418,61.452
				l-2.849,5.839l11.607-7.146L99.418,61.452z"/>
		</g>
	</g>
	<g>
		<path style="fill:#7F3F98;" d="M10.157,13.638c-0.162,0-0.293,0.13-0.293,0.291c0,0.161,0.131,0.291,0.293,0.291
			c0.162,0,0.293-0.13,0.293-0.291C10.45,13.768,10.319,13.638,10.157,13.638z"/>
		<path style="fill:#00AEEF;" d="M11.324,13.556c0.179,0,0.325-0.144,0.325-0.322c0-0.178-0.146-0.322-0.325-0.322
			c-0.179,0-0.324,0.145-0.324,0.322C10.999,13.412,11.144,13.556,11.324,13.556z"/>
		<path style="fill:#F26522;" d="M68.54,15.249c0.192,0,0.348-0.155,0.348-0.346c0-0.19-0.155-0.345-0.348-0.345
			c-0.192,0-0.348,0.155-0.348,0.345C68.192,15.094,68.348,15.249,68.54,15.249z"/>
		<path style="fill:#F26522;" d="M4.053,14.738c0.243,0,0.439-0.195,0.439-0.437c0-0.241-0.197-0.437-0.439-0.437
			c-0.243,0-0.44,0.196-0.44,0.437C3.613,14.543,3.81,14.738,4.053,14.738z"/>
		<path style="fill:#FFDE17;" d="M26.229,21.435c0.286,0,0.517-0.23,0.517-0.514c0-0.284-0.232-0.514-0.517-0.514
			c-0.286,0-0.517,0.23-0.517,0.514C25.712,21.205,25.943,21.435,26.229,21.435z"/>
		<path style="fill:#ED1C24;" d="M23.974,19.364c0.173,0,0.313-0.139,0.313-0.311s-0.14-0.311-0.313-0.311
			c-0.173,0-0.313,0.139-0.313,0.311S23.801,19.364,23.974,19.364z"/>
		<path style="fill:#7F3F98;" d="M41.788,14.394c0.185,0,0.334-0.148,0.334-0.332c0-0.184-0.149-0.332-0.334-0.332
			c-0.185,0-0.334,0.148-0.334,0.332C41.454,14.246,41.603,14.394,41.788,14.394z"/>
		<path style="fill:#00A14B;" d="M43.663,27.22c0.193,0,0.349-0.155,0.349-0.347c0-0.191-0.156-0.346-0.349-0.346
			c-0.192,0-0.349,0.155-0.349,0.346C43.314,27.065,43.47,27.22,43.663,27.22z"/>
		<path style="fill:#00AEEF;" d="M45.37,16.057c0-0.254-0.208-0.46-0.463-0.46c-0.255,0-0.463,0.206-0.463,0.46
			s0.208,0.459,0.463,0.459C45.162,16.517,45.37,16.311,45.37,16.057z"/>
		<path style="fill:#F26522;" d="M53.766,21.04c-0.233,0-0.423,0.188-0.423,0.42c0,0.232,0.189,0.42,0.423,0.42
			c0.233,0,0.423-0.188,0.423-0.42C54.188,21.228,53.999,21.04,53.766,21.04z"/>
		<path style="fill:#FFDE17;" d="M57.361,20.519c-0.238,0-0.431,0.192-0.431,0.428c0,0.237,0.193,0.429,0.431,0.429
			c0.238,0,0.431-0.192,0.431-0.429C57.792,20.711,57.6,20.519,57.361,20.519z"/>
		<path style="fill:#ED1C24;" d="M67.027,20.395c0,0.314,0.257,0.569,0.573,0.569c0.317,0,0.573-0.255,0.573-0.569
			c0-0.314-0.256-0.569-0.573-0.569C67.284,19.826,67.027,20.081,67.027,20.395z"/>
		<path style="fill:#F26522;" d="M5.37,26.288c-0.19,0-0.344,0.153-0.344,0.341c0,0.188,0.154,0.341,0.344,0.341
			c0.19,0,0.344-0.153,0.344-0.341C5.714,26.44,5.56,26.288,5.37,26.288z"/>
		<path style="fill:#ED1C24;" d="M5.699,20.327c0-0.228-0.187-0.413-0.416-0.413c-0.23,0-0.416,0.185-0.416,0.413
			c0,0.228,0.187,0.413,0.416,0.413C5.513,20.74,5.699,20.555,5.699,20.327z"/>
		<path style="fill:#FFDE17;" d="M11.374,25.338c0.295,0,0.535-0.238,0.535-0.532c0-0.293-0.24-0.532-0.535-0.532
			c-0.295,0-0.535,0.238-0.535,0.532C10.839,25.1,11.079,25.338,11.374,25.338z"/>
		<path style="fill:#FFDE17;" d="M19.108,32.271c-0.261,0-0.473,0.21-0.473,0.47s0.212,0.469,0.473,0.469
			c0.261,0,0.473-0.21,0.473-0.469S19.369,32.271,19.108,32.271z"/>
		<path style="fill:#FFDE17;" d="M23.015,26.281c0-0.286-0.233-0.517-0.521-0.517c-0.288,0-0.521,0.231-0.521,0.517
			c0,0.286,0.233,0.517,0.521,0.517C22.781,26.798,23.015,26.567,23.015,26.281z"/>
		<path style="fill:#00AEEF;" d="M24.327,19.868c-0.205,0-0.371,0.165-0.371,0.368c0,0.203,0.166,0.368,0.371,0.368
			c0.205,0,0.371-0.165,0.371-0.368C24.697,20.033,24.531,19.868,24.327,19.868z"/>
		<path style="fill:#ED1C24;" d="M33.483,25.478c-0.289,0-0.524,0.233-0.524,0.52c0,0.288,0.235,0.521,0.524,0.521
			c0.289,0,0.524-0.233,0.524-0.521C34.007,25.71,33.773,25.478,33.483,25.478z"/>
		<path style="fill:#F26522;" d="M44.023,30.701c-0.22,0-0.399,0.178-0.399,0.396c0,0.219,0.179,0.396,0.399,0.396
			c0.221,0,0.4-0.178,0.4-0.396C44.423,30.879,44.244,30.701,44.023,30.701z"/>
		<path style="fill:#F26522;" d="M51.914,23.489c0.31,0,0.561-0.25,0.561-0.557c0-0.308-0.251-0.557-0.561-0.557
			c-0.31,0-0.561,0.25-0.561,0.557C51.353,23.239,51.604,23.489,51.914,23.489z"/>
		<path style="fill:#7F3F98;" d="M52.174,25.46c-0.296,0-0.536,0.238-0.536,0.532c0,0.294,0.24,0.533,0.536,0.533
			c0.296,0,0.536-0.238,0.536-0.533C52.71,25.698,52.47,25.46,52.174,25.46z"/>
		<path style="fill:#FFDE17;" d="M47.647,30.292c-0.236,0-0.428,0.19-0.428,0.425c0,0.235,0.192,0.425,0.428,0.425
			c0.236,0,0.428-0.19,0.428-0.425C48.075,30.482,47.883,30.292,47.647,30.292z"/>
		<path style="fill:#ED1C24;" d="M62.433,19.86c0.219,0,0.395-0.176,0.395-0.393c0-0.217-0.177-0.394-0.395-0.394
			c-0.219,0-0.397,0.176-0.397,0.394C62.036,19.684,62.214,19.86,62.433,19.86z"/>
		<path style="fill:#00AEEF;" d="M50.416,32.825c0.208,0,0.377-0.167,0.377-0.374c0-0.206-0.169-0.374-0.377-0.374
			s-0.376,0.167-0.376,0.374C50.04,32.657,50.208,32.825,50.416,32.825z"/>
		<path style="fill:#FFDE17;" d="M63.836,21.926c0.345,0,0.624-0.277,0.624-0.62c0-0.342-0.279-0.62-0.624-0.62
			c-0.345,0-0.624,0.277-0.624,0.62C63.212,21.649,63.491,21.926,63.836,21.926z"/>
		<path style="fill:#FFDE17;" d="M11.847,30.566c0-0.251-0.205-0.454-0.457-0.454c-0.252,0-0.457,0.203-0.457,0.454
			c0,0.25,0.205,0.454,0.457,0.454C11.642,31.02,11.847,30.816,11.847,30.566z"/>
		<path style="fill:#F26522;" d="M26.729,26.946c0-0.231-0.188-0.417-0.42-0.417c-0.232,0-0.42,0.186-0.42,0.417
			c0,0.23,0.188,0.417,0.42,0.417C26.541,27.363,26.729,27.176,26.729,26.946z"/>
		<path style="fill:#F26522;" d="M28.921,34.644c0-0.208-0.17-0.377-0.38-0.377c-0.21,0-0.38,0.169-0.38,0.377
			s0.17,0.377,0.38,0.377C28.75,35.021,28.921,34.853,28.921,34.644z"/>
		<path style="fill:#FFDE17;" d="M38.085,29.086c-0.2,0-0.362,0.161-0.362,0.36s0.163,0.36,0.362,0.36c0.2,0,0.362-0.161,0.362-0.36
			S38.285,29.086,38.085,29.086z"/>
		<path style="fill:#F26522;" d="M63.509,32.889c0.199,0,0.36-0.16,0.36-0.358c0-0.198-0.161-0.358-0.36-0.358
			c-0.199,0-0.36,0.16-0.36,0.358C63.148,32.729,63.31,32.889,63.509,32.889z"/>
		<path style="fill:#F26522;" d="M55.22,37.588c-0.209,0-0.379,0.169-0.379,0.377c0,0.208,0.17,0.377,0.379,0.377
			c0.21,0,0.38-0.169,0.38-0.377C55.6,37.757,55.43,37.588,55.22,37.588z"/>
		<path style="fill:#FFDE17;" d="M61.117,29.272c0-0.273-0.224-0.495-0.498-0.495c-0.275,0-0.499,0.222-0.499,0.495
			c0,0.273,0.223,0.495,0.499,0.495C60.894,29.767,61.117,29.545,61.117,29.272z"/>
		<path style="fill:#FFDE17;" d="M6.903,37.068c-0.232,0-0.42,0.187-0.42,0.417c0,0.23,0.188,0.417,0.42,0.417
			c0.232,0,0.42-0.187,0.42-0.417C7.323,37.255,7.135,37.068,6.903,37.068z"/>
		<path style="fill:#00A14B;" d="M12.659,38.877c-0.277,0-0.502,0.223-0.502,0.498s0.225,0.498,0.502,0.498
			c0.277,0,0.501-0.223,0.501-0.498S12.936,38.877,12.659,38.877z"/>
		<path style="fill:#00AEEF;" d="M16.241,36.941c-0.218,0-0.395,0.175-0.395,0.392c0,0.217,0.177,0.392,0.395,0.392
			c0.218,0,0.395-0.175,0.395-0.392C16.635,37.116,16.458,36.941,16.241,36.941z"/>
		<path style="fill:#ED1C24;" d="M21.739,31.218c-0.307,0-0.556,0.247-0.556,0.552c0,0.305,0.249,0.552,0.556,0.552
			c0.307,0,0.556-0.248,0.556-0.552C22.294,31.465,22.046,31.218,21.739,31.218z"/>
		<path style="fill:#F26522;" d="M30.487,39.643c0.171,0,0.31-0.138,0.31-0.308c0-0.17-0.139-0.308-0.31-0.308
			c-0.171,0-0.31,0.138-0.31,0.308C30.177,39.505,30.315,39.643,30.487,39.643z"/>
		<path style="fill:#FFDE17;" d="M43.804,38.029c-0.221,0-0.399,0.178-0.399,0.397c0,0.219,0.179,0.396,0.399,0.396
			c0.22,0,0.399-0.177,0.399-0.396C44.204,38.207,44.024,38.029,43.804,38.029z"/>
		<path style="fill:#FFDE17;" d="M46.347,35.026c0-0.271-0.221-0.491-0.495-0.491c-0.273,0-0.495,0.22-0.495,0.491
			s0.221,0.491,0.495,0.491C46.125,35.518,46.347,35.298,46.347,35.026z"/>
		<path style="fill:#00A14B;" d="M45.7,33.009c0-0.276-0.225-0.5-0.503-0.5c-0.278,0-0.503,0.224-0.503,0.5
			c0,0.276,0.225,0.5,0.503,0.5C45.475,33.509,45.7,33.285,45.7,33.009z"/>
		<path style="fill:#FFDE17;" d="M57.212,40.546c-0.248,0-0.45,0.2-0.45,0.447c0,0.247,0.202,0.447,0.45,0.447
			c0.249,0,0.45-0.2,0.45-0.447C57.662,40.747,57.461,40.546,57.212,40.546z"/>
		<path style="fill:#7F3F98;" d="M57.272,35.623c-0.258,0-0.468,0.208-0.468,0.464c0,0.257,0.209,0.464,0.468,0.464
			c0.258,0,0.467-0.208,0.467-0.464C57.74,35.831,57.53,35.623,57.272,35.623z"/>
		<path style="fill:#7F3F98;" d="M70.73,37.335c-0.284,0-0.516,0.229-0.516,0.513c0,0.283,0.231,0.512,0.516,0.512
			c0.285,0,0.517-0.229,0.517-0.512C71.247,37.564,71.016,37.335,70.73,37.335z"/>
		<path style="fill:#F26522;" d="M8.478,42.444c-0.278,0-0.503,0.224-0.503,0.5c0,0.276,0.226,0.5,0.503,0.5
			c0.278,0,0.503-0.224,0.503-0.5C8.981,42.668,8.756,42.444,8.478,42.444z"/>
		<path style="fill:#FFDE17;" d="M3.08,48.507c-0.289,0-0.523,0.232-0.523,0.519c0,0.287,0.234,0.52,0.523,0.52
			c0.289,0,0.522-0.232,0.522-0.52C3.602,48.739,3.369,48.507,3.08,48.507z"/>
		<ellipse style="fill:#00A14B;" cx="8.966" cy="40.205" rx="0.512" ry="0.508"/>
		<path style="fill:#7F3F98;" d="M14.837,41.242c-0.219,0-0.396,0.176-0.396,0.394c0,0.217,0.177,0.393,0.396,0.393
			c0.219,0,0.396-0.176,0.396-0.393C15.233,41.418,15.056,41.242,14.837,41.242z"/>
		<path style="fill:#F26522;" d="M8.536,45.381c-0.245,0-0.443,0.197-0.443,0.439c0,0.243,0.198,0.439,0.443,0.439
			c0.244,0,0.442-0.196,0.442-0.439C8.978,45.578,8.78,45.381,8.536,45.381z"/>
		<path style="fill:#FFDE17;" d="M18.179,43.768c-0.209,0-0.379,0.169-0.379,0.377s0.17,0.377,0.379,0.377s0.379-0.169,0.379-0.377
			S18.388,43.768,18.179,43.768z"/>
		<path style="fill:#00A14B;" d="M23.798,40.038c0.188,0,0.339-0.151,0.339-0.337c0-0.186-0.152-0.337-0.339-0.337
			s-0.339,0.151-0.339,0.337C23.459,39.887,23.611,40.038,23.798,40.038z"/>
		<path style="fill:#ED1C24;" d="M21.743,44.986c-0.292,0-0.527,0.234-0.527,0.523c0,0.29,0.236,0.524,0.527,0.524
			S22.27,45.8,22.27,45.51C22.27,45.221,22.034,44.986,21.743,44.986z"/>
		<path style="fill:#F26522;" d="M37.113,47.529c-0.292,0-0.53,0.235-0.53,0.526c0,0.29,0.237,0.525,0.53,0.525
			s0.53-0.235,0.53-0.525C37.643,47.765,37.406,47.529,37.113,47.529z"/>
		<path style="fill:#ED1C24;" d="M31.755,49.021c0.202,0,0.365-0.163,0.365-0.363s-0.164-0.363-0.365-0.363
			c-0.202,0-0.366,0.163-0.366,0.363S31.553,49.021,31.755,49.021z"/>
		<path style="fill:#FFDE17;" d="M37.025,42.056c0.242,0,0.439-0.195,0.439-0.436c0-0.241-0.197-0.435-0.439-0.435
			c-0.242,0-0.439,0.195-0.439,0.435C36.586,41.861,36.783,42.056,37.025,42.056z"/>
		<path style="fill:#FFDE17;" d="M49.751,51.425c-0.27,0-0.488,0.217-0.488,0.484c0,0.268,0.219,0.485,0.488,0.485
			c0.27,0,0.488-0.218,0.488-0.485C50.24,51.642,50.021,51.425,49.751,51.425z"/>
		<path style="fill:#F26522;" d="M50.288,42.743c0.206,0,0.373-0.166,0.373-0.37c0-0.204-0.167-0.37-0.373-0.37
			c-0.206,0-0.373,0.166-0.373,0.37C49.915,42.577,50.081,42.743,50.288,42.743z"/>
		<path style="fill:#FFDE17;" d="M42.489,48.241c0.214,0,0.388-0.173,0.388-0.385c0-0.213-0.174-0.386-0.388-0.386
			c-0.214,0-0.388,0.173-0.388,0.386C42.101,48.068,42.275,48.241,42.489,48.241z"/>
		<path style="fill:#7F3F98;" d="M66.866,39.167c-0.224,0-0.405,0.18-0.405,0.403c0,0.222,0.182,0.403,0.405,0.403
			c0.225,0,0.406-0.181,0.406-0.403C67.272,39.347,67.091,39.167,66.866,39.167z"/>
		<path style="fill:#F26522;" d="M61.619,51.319c0-0.198-0.162-0.359-0.362-0.359c-0.2,0-0.362,0.161-0.362,0.359
			c0,0.199,0.162,0.36,0.362,0.36C61.457,51.68,61.619,51.519,61.619,51.319z"/>
		<path style="fill:#F26522;" d="M2.279,43.931c-0.187,0-0.338,0.143-0.354,0.324c-0.024-0.005-0.048-0.008-0.074-0.008
			c-0.233,0-0.421,0.188-0.421,0.418c0,0.231,0.188,0.418,0.421,0.418c0.232,0,0.421-0.187,0.421-0.418
			c0-0.009-0.002-0.018-0.003-0.027c0.003,0.001,0.006,0.001,0.01,0.001c0.197,0,0.356-0.158,0.356-0.354
			C2.636,44.089,2.476,43.931,2.279,43.931z"/>
		<path style="fill:#FFDE17;" d="M22.974,50.476c-0.24,0-0.434,0.193-0.434,0.432s0.195,0.431,0.434,0.431
			c0.24,0,0.435-0.192,0.435-0.431S23.213,50.476,22.974,50.476z"/>
		<path style="fill:#ED1C24;" d="M31.731,52.358c-0.283,0-0.511,0.227-0.511,0.507c0,0.281,0.228,0.508,0.511,0.508
			c0.282,0,0.511-0.227,0.511-0.508C32.242,52.585,32.013,52.358,31.731,52.358z"/>
		<path style="fill:#00A14B;" d="M51.549,43.563c-0.248,0-0.448,0.199-0.448,0.445s0.201,0.445,0.448,0.445
			c0.248,0,0.448-0.199,0.448-0.445S51.797,43.563,51.549,43.563z"/>
		<path style="fill:#FFDE17;" d="M64.809,49.442c0.18,0,0.324-0.145,0.324-0.322c0-0.178-0.145-0.322-0.324-0.322
			c-0.179,0-0.324,0.145-0.324,0.322C64.484,49.298,64.63,49.442,64.809,49.442z"/>
		<path style="fill:#00A14B;" d="M62.746,51.6c-0.22,0-0.398,0.178-0.398,0.395c0,0.219,0.178,0.396,0.398,0.396
			c0.221,0,0.398-0.177,0.398-0.396C63.144,51.777,62.967,51.6,62.746,51.6z"/>
		<path style="fill:#ED1C24;" d="M10.754,57.529c-0.177,0-0.32,0.143-0.32,0.318c0,0.175,0.144,0.317,0.32,0.317
			s0.32-0.143,0.32-0.317C11.074,57.672,10.931,57.529,10.754,57.529z"/>
		<path style="fill:#FFDE17;" d="M0.23,57.144c-0.086,0-0.166,0.027-0.23,0.073v0.645c0.065,0.046,0.144,0.073,0.23,0.073
			c0.22,0,0.398-0.177,0.398-0.396C0.629,57.32,0.45,57.144,0.23,57.144z"/>
		<path style="fill:#7F3F98;" d="M12.031,56.402c-0.216,0-0.391,0.174-0.391,0.389c0,0.214,0.175,0.388,0.391,0.388
			c0.216,0,0.391-0.174,0.391-0.388C12.422,56.576,12.247,56.402,12.031,56.402z"/>
		<path style="fill:#ED1C24;" d="M4.178,55.467c-0.293,0-0.532,0.236-0.532,0.528c0,0.292,0.238,0.528,0.532,0.528
			c0.294,0,0.532-0.236,0.532-0.528C4.71,55.703,4.472,55.467,4.178,55.467z"/>
		<path style="fill:#ED1C24;" d="M14.533,57.923c0-0.225-0.183-0.406-0.409-0.406c-0.226,0-0.409,0.182-0.409,0.406
			c0,0.224,0.183,0.406,0.409,0.406C14.35,58.329,14.533,58.146,14.533,57.923z"/>
		<ellipse style="fill:#F26522;" cx="14.645" cy="58.862" rx="0.458" ry="0.455"/>
		<path style="fill:#00A14B;" d="M24.147,58.188c-0.208,0-0.377,0.167-0.377,0.374c0,0.207,0.169,0.375,0.377,0.375
			c0.209,0,0.377-0.168,0.377-0.375C24.525,58.354,24.356,58.188,24.147,58.188z"/>
		<path style="fill:#FFDE17;" d="M33.391,53.132c0-0.305-0.248-0.551-0.554-0.551c-0.307,0-0.555,0.246-0.555,0.551
			c0,0.304,0.248,0.551,0.555,0.551C33.143,53.683,33.391,53.436,33.391,53.132z"/>
		<path style="fill:#7F3F98;" d="M39.847,54.196c-0.268,0-0.486,0.216-0.486,0.482c0,0.267,0.218,0.482,0.486,0.482
			c0.269,0,0.486-0.216,0.486-0.482C40.333,54.412,40.115,54.196,39.847,54.196z"/>
		<path style="fill:#00A14B;" d="M51.354,54.061c-0.177,0-0.32,0.143-0.32,0.317c0,0.176,0.143,0.318,0.32,0.318
			c0.177,0,0.32-0.143,0.32-0.318C51.674,54.203,51.531,54.061,51.354,54.061z"/>
		<path style="fill:#7F3F98;" d="M46.23,58.42c-0.213,0-0.386,0.172-0.386,0.383c0,0.212,0.173,0.383,0.386,0.383
			c0.213,0,0.386-0.171,0.386-0.383C46.616,58.592,46.443,58.42,46.23,58.42z"/>
		<path style="fill:#FFDE17;" d="M69.742,64.323c-0.14,0-0.252,0.112-0.252,0.25c0,0.139,0.112,0.25,0.252,0.25
			c0.139,0,0.252-0.111,0.252-0.25C69.994,64.436,69.881,64.323,69.742,64.323z"/>
		<path style="fill:#F26522;" d="M54.609,58.479c-0.185,0-0.334,0.148-0.334,0.332c0,0.184,0.149,0.332,0.334,0.332
			c0.184,0,0.334-0.149,0.334-0.332C54.943,58.628,54.794,58.479,54.609,58.479z"/>
		<path style="fill:#F26522;" d="M56.226,51.585c-0.184,0-0.334,0.148-0.334,0.331c0,0.184,0.15,0.332,0.334,0.332
			c0.184,0,0.334-0.148,0.334-0.332C56.56,51.733,56.411,51.585,56.226,51.585z"/>
		<path style="fill:#F26522;" d="M63.476,56.149c-0.231,0-0.417,0.186-0.417,0.415c0,0.229,0.186,0.414,0.417,0.414
			c0.23,0,0.417-0.186,0.417-0.414C63.893,56.335,63.706,56.149,63.476,56.149z"/>
		<path style="fill:#ED1C24;" d="M17.025,62.93c-0.115,0-0.208,0.093-0.208,0.207c0,0.113,0.093,0.206,0.208,0.206
			c0.115,0,0.208-0.093,0.208-0.206C17.233,63.022,17.14,62.93,17.025,62.93z"/>
		<path style="fill:#F26522;" d="M25.55,56.545c-0.347,0-0.627,0.278-0.627,0.623c0,0.345,0.281,0.624,0.627,0.624
			c0.347,0,0.628-0.279,0.628-0.624C26.178,56.823,25.897,56.545,25.55,56.545z"/>
		<path style="fill:#FFDE17;" d="M26.901,65.511c-0.171,0-0.31,0.138-0.31,0.308c0,0.17,0.139,0.308,0.31,0.308
			c0.171,0,0.31-0.138,0.31-0.308C27.211,65.648,27.072,65.511,26.901,65.511z"/>
		<path style="fill:#7F3F98;" d="M26.906,57.753c-0.274,0-0.496,0.221-0.496,0.492c0,0.273,0.222,0.493,0.496,0.493
			c0.274,0,0.497-0.221,0.497-0.493C27.403,57.974,27.181,57.753,26.906,57.753z"/>
		<path style="fill:#ED1C24;" d="M32.918,60.293c0,0.198,0.162,0.358,0.361,0.358c0.199,0,0.361-0.16,0.361-0.358
			c0-0.197-0.162-0.358-0.361-0.358C33.08,59.935,32.918,60.096,32.918,60.293z"/>
		<path style="fill:#ED1C24;" d="M42.658,58.957c0-0.23-0.188-0.418-0.42-0.418c-0.232,0-0.42,0.188-0.42,0.418
			c0,0.23,0.188,0.417,0.42,0.417C42.47,59.374,42.658,59.188,42.658,58.957z"/>
		<path style="fill:#F26522;" d="M41.358,67.583c-0.278,0-0.504,0.224-0.504,0.5c0,0.277,0.226,0.501,0.504,0.501
			c0.278,0,0.504-0.224,0.504-0.501C41.862,67.807,41.637,67.583,41.358,67.583z"/>
		<path style="fill:#ED1C24;" d="M50.637,57.922c-0.253,0-0.458,0.204-0.458,0.455c0,0.251,0.205,0.455,0.458,0.455
			s0.458-0.204,0.458-0.455C51.094,58.126,50.89,57.922,50.637,57.922z"/>
		<path style="fill:#FFDE17;" d="M43.01,66.848c-0.183,0-0.331,0.147-0.331,0.329c0,0.182,0.148,0.328,0.331,0.328
			c0.183,0,0.331-0.146,0.331-0.328C43.341,66.995,43.193,66.848,43.01,66.848z"/>
		<path style="fill:#FFDE17;" d="M33.324,70.422c-0.252,0-0.457,0.204-0.457,0.454c0,0.251,0.205,0.454,0.457,0.454
			c0.253,0,0.457-0.203,0.457-0.454C33.781,70.626,33.576,70.422,33.324,70.422z"/>
		<path style="fill:#FFDE17;" d="M28.994,68.255c-0.176,0-0.319,0.143-0.319,0.317c0,0.175,0.143,0.316,0.319,0.316
			c0.176,0,0.319-0.142,0.319-0.316C29.312,68.397,29.17,68.255,28.994,68.255z"/>
		<path style="fill:#FFDE17;" d="M23.725,73.464c-0.158,0-0.285,0.127-0.285,0.283c0,0.157,0.128,0.284,0.285,0.284
			c0.158,0,0.286-0.127,0.286-0.284C24.011,73.591,23.883,73.464,23.725,73.464z"/>
		<path style="fill:#ED1C24;" d="M30.365,65.813c-0.253,0-0.457,0.203-0.457,0.454c0,0.252,0.205,0.455,0.457,0.455
			c0.253,0,0.458-0.203,0.458-0.455C30.822,66.016,30.618,65.813,30.365,65.813z"/>
		<path style="fill:#FFDE17;" d="M42.39,72.71c-0.202,0-0.365,0.163-0.365,0.363c0,0.2,0.164,0.362,0.365,0.362
			c0.201,0,0.365-0.162,0.365-0.362C42.754,72.873,42.591,72.71,42.39,72.71z"/>
		<path style="fill:#00A14B;" d="M67.365,12.545c0.191,0,0.347-0.154,0.347-0.344c0-0.19-0.155-0.344-0.347-0.344
			c-0.191,0-0.347,0.154-0.347,0.344C67.019,12.392,67.174,12.545,67.365,12.545z"/>
		<ellipse style="fill:#F26522;" cx="77.437" cy="14.357" rx="0.546" ry="0.542"/>
		<path style="fill:#FFDE17;" d="M83.197,13.729c-0.278,0-0.504,0.225-0.504,0.501c0,0.277,0.226,0.501,0.504,0.501
			c0.279,0,0.505-0.224,0.505-0.501C83.702,13.954,83.477,13.729,83.197,13.729z"/>
		<path style="fill:#ED1C24;" d="M58.662,25.037c0,0.242,0.198,0.438,0.442,0.438c0.244,0,0.441-0.196,0.441-0.438
			c0-0.242-0.198-0.439-0.441-0.439C58.859,24.598,58.662,24.794,58.662,25.037z"/>
		<path style="fill:#FFDE17;" d="M58.902,23.087c0-0.192-0.157-0.349-0.351-0.349c-0.194,0-0.351,0.156-0.351,0.349
			c0,0.193,0.157,0.349,0.351,0.349C58.745,23.436,58.902,23.28,58.902,23.087z"/>
		<path style="fill:#7F3F98;" d="M60.951,19.551c0.214,0,0.388-0.172,0.388-0.385c0-0.212-0.174-0.385-0.388-0.385
			c-0.214,0-0.388,0.173-0.388,0.385C60.563,19.378,60.736,19.551,60.951,19.551z"/>
		<path style="fill:#ED1C24;" d="M71.397,21.847c0.22,0,0.398-0.178,0.398-0.396c0-0.219-0.179-0.396-0.398-0.396
			c-0.221,0-0.399,0.177-0.399,0.396C70.998,21.669,71.177,21.847,71.397,21.847z"/>
		<path style="fill:#F26522;" d="M70.166,15.828c0.224,0,0.405-0.18,0.405-0.402c0-0.222-0.182-0.402-0.405-0.402
			c-0.224,0-0.404,0.18-0.404,0.402C69.762,15.648,69.942,15.828,70.166,15.828z"/>
		<path style="fill:#00AEEF;" d="M84.917,16.155c0.241,0,0.436-0.194,0.436-0.434c0-0.239-0.195-0.433-0.436-0.433
			c-0.24,0-0.436,0.194-0.436,0.433C84.481,15.961,84.677,16.155,84.917,16.155z"/>
		<path style="fill:#FFDE17;" d="M76.636,15.053c0-0.2-0.163-0.362-0.365-0.362c-0.201,0-0.364,0.162-0.364,0.362
			s0.163,0.362,0.364,0.362C76.473,15.415,76.636,15.252,76.636,15.053z"/>
		<path style="fill:#F26522;" d="M90.087,20.465c0.16,0,0.289-0.128,0.289-0.287c0-0.159-0.129-0.287-0.289-0.287
			c-0.159,0-0.289,0.128-0.289,0.287C89.798,20.336,89.928,20.465,90.087,20.465z"/>
		<path style="fill:#F26522;" d="M111.528,17.181c0-0.279-0.228-0.505-0.508-0.505c-0.281,0-0.509,0.226-0.509,0.505
			c0,0.279,0.228,0.504,0.509,0.504C111.301,17.685,111.528,17.46,111.528,17.181z"/>
		<ellipse style="fill:#FFDE17;" cx="107.901" cy="15.186" rx="0.629" ry="0.624"/>
		<path style="fill:#00A14B;" d="M120,22.202c-0.038-0.012-0.078-0.02-0.121-0.02c-0.223,0-0.404,0.18-0.404,0.402
			c0,0.222,0.182,0.402,0.404,0.402c0.043,0,0.083-0.008,0.121-0.021V22.202z"/>
		<path style="fill:#ED1C24;" d="M118.028,24.456c0.223,0,0.402-0.179,0.402-0.4c0-0.221-0.18-0.4-0.402-0.4
			c-0.223,0-0.403,0.179-0.403,0.4C117.625,24.277,117.806,24.456,118.028,24.456z"/>
		<path style="fill:#00A14B;" d="M61.981,27.259c0.196,0,0.356-0.158,0.356-0.354c0-0.195-0.16-0.354-0.356-0.354
			c-0.197,0-0.356,0.158-0.356,0.354C61.625,27.101,61.784,27.259,61.981,27.259z"/>
		<path style="fill:#FFDE17;" d="M71.484,27.226c-0.294,0-0.531,0.236-0.531,0.527s0.237,0.527,0.531,0.527
			c0.293,0,0.531-0.236,0.531-0.527S71.777,27.226,71.484,27.226z"/>
		<path style="fill:#F26522;" d="M78.111,31.69c0-0.333-0.272-0.604-0.607-0.604c-0.336,0-0.607,0.27-0.607,0.604
			c0,0.333,0.272,0.604,0.607,0.604C77.839,32.293,78.111,32.023,78.111,31.69z"/>
		<path style="fill:#F26522;" d="M77.488,25.532c-0.222,0-0.401,0.179-0.401,0.399c0,0.22,0.18,0.399,0.401,0.399
			c0.222,0,0.401-0.179,0.401-0.399C77.89,25.711,77.71,25.532,77.488,25.532z"/>
		<path style="fill:#FFDE17;" d="M90.44,20.912c-0.249,0-0.452,0.201-0.452,0.448c0,0.248,0.203,0.449,0.452,0.449
			c0.25,0,0.452-0.201,0.452-0.449C90.893,21.113,90.69,20.912,90.44,20.912z"/>
		<path style="fill:#F26522;" d="M85.222,33.275c-0.328,0-0.594,0.264-0.594,0.59c0,0.326,0.266,0.59,0.594,0.59
			c0.328,0,0.595-0.264,0.595-0.59C85.816,33.539,85.55,33.275,85.222,33.275z"/>
		<path style="fill:#ED1C24;" d="M92.343,22.347c0.167,0,0.303-0.135,0.303-0.301s-0.136-0.301-0.303-0.301
			s-0.303,0.135-0.303,0.301S92.176,22.347,92.343,22.347z"/>
		<path style="fill:#00A14B;" d="M88.607,27.936c0.295,0,0.534-0.238,0.534-0.531c0-0.293-0.239-0.531-0.534-0.531
			s-0.534,0.238-0.534,0.531C88.073,27.698,88.312,27.936,88.607,27.936z"/>
		<path style="fill:#00AEEF;" d="M92.822,28.07c0-0.219-0.179-0.396-0.399-0.396c-0.221,0-0.399,0.178-0.399,0.396
			c0,0.219,0.179,0.397,0.399,0.397C92.644,28.467,92.822,28.29,92.822,28.07z"/>
		<path style="fill:#FFDE17;" d="M99.598,26.631c-0.274,0-0.494,0.22-0.494,0.49c0,0.271,0.221,0.491,0.494,0.491
			c0.272,0,0.493-0.22,0.493-0.491C100.091,26.851,99.87,26.631,99.598,26.631z"/>
		<path style="fill:#00A14B;" d="M110.36,27.998c0-0.32-0.262-0.58-0.584-0.58c-0.322,0-0.584,0.26-0.584,0.58
			c0,0.32,0.262,0.58,0.584,0.58C110.099,28.578,110.36,28.318,110.36,27.998z"/>
		<path style="fill:#00A14B;" d="M110.138,31.725c-0.276,0-0.5,0.222-0.5,0.497c0,0.274,0.224,0.497,0.5,0.497
			c0.276,0,0.5-0.223,0.5-0.497C110.638,31.947,110.414,31.725,110.138,31.725z"/>
		<path style="fill:#F26522;" d="M118.288,26.695c-0.234,0-0.425,0.189-0.425,0.422c0,0.233,0.19,0.421,0.425,0.421
			c0.234,0,0.424-0.188,0.424-0.421C118.712,26.884,118.522,26.695,118.288,26.695z"/>
		<ellipse style="fill:#ED1C24;" cx="116.53" cy="33.575" rx="0.592" ry="0.588"/>
		<path style="fill:#FFDE17;" d="M60.085,39.338c-0.03-0.147-0.161-0.257-0.318-0.257c-0.179,0-0.324,0.144-0.324,0.322
			c0,0.027,0.005,0.054,0.011,0.079c-0.088,0.098-0.142,0.226-0.142,0.368c0,0.306,0.249,0.554,0.558,0.554
			c0.308,0,0.558-0.248,0.558-0.554C60.428,39.619,60.287,39.422,60.085,39.338z"/>
		<path style="fill:#ED1C24;" d="M56.295,38.844c0.136,0,0.247-0.11,0.247-0.245c0-0.135-0.11-0.245-0.247-0.245
			c-0.136,0-0.246,0.109-0.246,0.245C56.049,38.734,56.159,38.844,56.295,38.844z"/>
		<path style="fill:#F26522;" d="M65.464,27.721c-0.285,0-0.516,0.229-0.516,0.513s0.231,0.513,0.516,0.513
			c0.285,0,0.516-0.229,0.516-0.513S65.749,27.721,65.464,27.721z"/>
		<path style="fill:#F26522;" d="M61.396,32.623c0-0.184-0.15-0.333-0.335-0.333c-0.185,0-0.335,0.149-0.335,0.333
			c0,0.184,0.15,0.333,0.335,0.333C61.246,32.956,61.396,32.807,61.396,32.623z"/>
		<path style="fill:#FFDE17;" d="M73.017,38.222c-0.216,0-0.391,0.174-0.391,0.388c0,0.214,0.175,0.388,0.391,0.388
			c0.216,0,0.392-0.174,0.392-0.388C73.408,38.396,73.232,38.222,73.017,38.222z"/>
		<path style="fill:#ED1C24;" d="M78.773,40.026c-0.264,0-0.477,0.212-0.477,0.473s0.213,0.473,0.477,0.473
			c0.263,0,0.476-0.212,0.476-0.473S79.036,40.026,78.773,40.026z"/>
		<path style="fill:#FFDE17;" d="M104.199,30.156c-0.23,0-0.418,0.185-0.418,0.414c0,0.229,0.188,0.415,0.418,0.415
			c0.231,0,0.417-0.186,0.417-0.415C104.616,30.341,104.43,30.156,104.199,30.156z"/>
		<path style="fill:#FFDE17;" d="M113.761,31.47c-0.206,0-0.373,0.166-0.373,0.371s0.167,0.371,0.373,0.371
			c0.206,0,0.373-0.166,0.373-0.371S113.967,31.47,113.761,31.47z"/>
		<path style="fill:#F26522;" d="M53.482,38.457c-0.197,0-0.356,0.158-0.356,0.354c0,0.195,0.159,0.354,0.356,0.354
			c0.197,0,0.357-0.159,0.357-0.354C53.838,38.615,53.679,38.457,53.482,38.457z"/>
		<path style="fill:#7F3F98;" d="M74.592,44.419c0.194,0,0.353-0.157,0.353-0.35c0-0.192-0.158-0.35-0.353-0.35
			c-0.194,0-0.353,0.157-0.353,0.35C74.239,44.262,74.397,44.419,74.592,44.419z"/>
		<path style="fill:#F26522;" d="M82.354,37.956c-0.278,0-0.505,0.224-0.505,0.501c0,0.276,0.227,0.501,0.505,0.501
			s0.504-0.225,0.504-0.501C82.858,38.18,82.633,37.956,82.354,37.956z"/>
		<path style="fill:#00A14B;" d="M87.852,32.477c-0.231,0-0.42,0.187-0.42,0.417c0,0.23,0.188,0.417,0.42,0.417
			c0.232,0,0.42-0.187,0.42-0.417C88.272,32.664,88.084,32.477,87.852,32.477z"/>
		<ellipse style="fill:#FFDE17;" cx="80.951" cy="42.759" rx="0.487" ry="0.484"/>
		<path style="fill:#F26522;" d="M94.654,35.324c-0.247,0-0.447,0.199-0.447,0.444c0,0.246,0.2,0.444,0.447,0.444
			s0.447-0.199,0.447-0.444C95.102,35.523,94.901,35.324,94.654,35.324z"/>
		<path style="fill:#ED1C24;" d="M87.856,46.289c-0.191,0-0.348,0.154-0.348,0.346c0,0.19,0.156,0.345,0.348,0.345
			c0.192,0,0.348-0.154,0.348-0.345C88.204,46.443,88.049,46.289,87.856,46.289z"/>
		<path style="fill:#00A14B;" d="M90.344,40.825c0-0.237-0.193-0.429-0.432-0.429c-0.238,0-0.432,0.192-0.432,0.429
			s0.193,0.429,0.432,0.429C90.15,41.254,90.344,41.062,90.344,40.825z"/>
		<path style="fill:#00A14B;" d="M109.918,39.089c-0.256,0-0.464,0.206-0.464,0.46c0,0.254,0.208,0.461,0.464,0.461
			c0.256,0,0.464-0.207,0.464-0.461C110.382,39.295,110.174,39.089,109.918,39.089z"/>
		<path style="fill:#FFDE17;" d="M96.601,40c-0.256,0-0.463,0.206-0.463,0.459c0,0.254,0.207,0.459,0.463,0.459
			c0.255,0,0.462-0.206,0.462-0.459C97.062,40.206,96.855,40,96.601,40z"/>
		<path style="fill:#00A14B;" d="M112.397,36.15c0-0.236-0.193-0.428-0.432-0.428c-0.238,0-0.431,0.192-0.431,0.428
			c0,0.237,0.192,0.428,0.431,0.428C112.204,36.579,112.397,36.387,112.397,36.15z"/>
		<path style="fill:#F26522;" d="M111.83,34.134c0-0.285-0.232-0.517-0.52-0.517c-0.287,0-0.52,0.231-0.52,0.517
			c0,0.285,0.233,0.517,0.52,0.517C111.598,34.65,111.83,34.419,111.83,34.134z"/>
		<path style="fill:#7F3F98;" d="M74.649,46.525c-0.233,0-0.423,0.188-0.423,0.419c0,0.231,0.189,0.42,0.423,0.42
			c0.233,0,0.422-0.188,0.422-0.42C75.071,46.713,74.883,46.525,74.649,46.525z"/>
		<path style="fill:#F26522;" d="M75.079,40.687c-0.357,0-0.646,0.288-0.646,0.642c0,0.355,0.289,0.643,0.646,0.643
			s0.646-0.288,0.646-0.643C75.726,40.974,75.436,40.687,75.079,40.687z"/>
		<path style="fill:#FFDE17;" d="M84.293,44.814c-0.253,0-0.457,0.203-0.457,0.454c0,0.251,0.204,0.453,0.457,0.453
			c0.252,0,0.456-0.202,0.456-0.453C84.749,45.018,84.545,44.814,84.293,44.814z"/>
		<path style="fill:#ED1C24;" d="M97.868,50.177c0.22,0,0.398-0.177,0.398-0.396c0-0.218-0.179-0.395-0.398-0.395
			c-0.22,0-0.398,0.177-0.398,0.395C97.471,50,97.648,50.177,97.868,50.177z"/>
		<path style="fill:#ED1C24;" d="M103.643,42.744c0-0.276-0.226-0.5-0.504-0.5c-0.277,0-0.503,0.224-0.503,0.5
			c0,0.276,0.226,0.5,0.503,0.5C103.417,43.244,103.643,43.021,103.643,42.744z"/>
		<path style="fill:#7F3F98;" d="M116.401,44.057c0.312,0,0.564-0.25,0.564-0.56c0-0.309-0.253-0.56-0.564-0.56
			c-0.312,0-0.564,0.251-0.564,0.56C115.837,43.807,116.09,44.057,116.401,44.057z"/>
		<path style="fill:#F26522;" d="M108.602,48.623c-0.198,0-0.359,0.16-0.359,0.357c0,0.197,0.161,0.357,0.359,0.357
			c0.199,0,0.36-0.16,0.36-0.357C108.963,48.783,108.802,48.623,108.602,48.623z"/>
		<path style="fill:#FFDE17;" d="M62.113,52.852c0-0.182-0.148-0.329-0.331-0.329c-0.183,0-0.33,0.147-0.33,0.329
			c0,0.181,0.148,0.328,0.33,0.328C61.965,53.18,62.113,53.032,62.113,52.852z"/>
		<path style="fill:#00A14B;" d="M69.659,50.149c0-0.255-0.208-0.462-0.466-0.462c-0.257,0-0.465,0.207-0.465,0.462
			c0,0.256,0.208,0.463,0.465,0.463C69.451,50.612,69.659,50.405,69.659,50.149z"/>
		<path style="fill:#ED1C24;" d="M70.292,56.643c-0.266,0-0.481,0.214-0.481,0.476c0,0.264,0.215,0.478,0.481,0.478
			c0.265,0,0.479-0.214,0.479-0.478C70.771,56.856,70.557,56.643,70.292,56.643z"/>
		<path style="fill:#F26522;" d="M89.088,51.521c-0.284,0-0.514,0.228-0.514,0.51c0,0.281,0.229,0.51,0.514,0.51
			c0.283,0,0.513-0.229,0.513-0.51C89.601,51.749,89.371,51.521,89.088,51.521z"/>
		<path style="fill:#7F3F98;" d="M80.688,59.047c0-0.247-0.201-0.448-0.45-0.448c-0.25,0-0.451,0.201-0.451,0.448
			c0,0.247,0.201,0.448,0.451,0.448C80.487,59.495,80.688,59.294,80.688,59.047z"/>
		<path style="fill:#FFDE17;" d="M103.227,48.765c-0.23,0-0.417,0.186-0.417,0.415c0,0.229,0.187,0.414,0.417,0.414
			c0.231,0,0.417-0.186,0.417-0.414C103.644,48.95,103.458,48.765,103.227,48.765z"/>
		<path style="fill:#F26522;" d="M115.865,52.468c-0.314,0-0.569,0.253-0.569,0.565s0.255,0.565,0.569,0.565
			c0.314,0,0.569-0.253,0.569-0.565S116.18,52.468,115.865,52.468z"/>
		<path style="fill:#00A14B;" d="M117.468,55.014c-0.271,0-0.491,0.219-0.491,0.488c0,0.271,0.22,0.488,0.491,0.488
			s0.491-0.218,0.491-0.488C117.959,55.232,117.739,55.014,117.468,55.014z"/>
		<path style="fill:#F26522;" d="M117.663,44.586c-0.305,0-0.551,0.245-0.551,0.547c0,0.303,0.246,0.548,0.551,0.548
			c0.305,0,0.551-0.245,0.551-0.548C118.214,44.831,117.968,44.586,117.663,44.586z"/>
		<path style="fill:#F26522;" d="M62.092,60.208c-0.211,0-0.382,0.17-0.382,0.379c0,0.21,0.171,0.379,0.382,0.379
			s0.382-0.169,0.382-0.379C62.474,60.378,62.303,60.208,62.092,60.208z"/>
		<path style="fill:#ED1C24;" d="M59.243,53.019c0-0.195-0.159-0.353-0.355-0.353s-0.355,0.157-0.355,0.353
			c0,0.195,0.159,0.353,0.355,0.353S59.243,53.214,59.243,53.019z"/>
		<path style="fill:#F26522;" d="M64.809,58.797c-0.297,0-0.538,0.239-0.538,0.535c0,0.295,0.241,0.534,0.538,0.534
			c0.298,0,0.538-0.239,0.538-0.534C65.347,59.036,65.106,58.797,64.809,58.797z"/>
		<path style="fill:#00AEEF;" d="M78.144,57.389c-0.292,0-0.529,0.235-0.529,0.526c0,0.291,0.237,0.526,0.529,0.526
			c0.293,0,0.53-0.235,0.53-0.526C78.675,57.624,78.437,57.389,78.144,57.389z"/>
		<path style="fill:#00AEEF;" d="M67.965,44.984c-0.292,0-0.529,0.235-0.529,0.526c0,0.29,0.237,0.525,0.529,0.525
			c0.293,0,0.53-0.235,0.53-0.525C68.495,45.22,68.258,44.984,67.965,44.984z"/>
		<path style="fill:#00A14B;" d="M76.868,58.507c-0.258,0-0.468,0.208-0.468,0.465c0,0.256,0.21,0.464,0.468,0.464
			c0.258,0,0.468-0.208,0.468-0.464C77.336,58.715,77.126,58.507,76.868,58.507z"/>
		<path style="fill:#F26522;" d="M80.759,59.643c-0.191,0-0.347,0.153-0.347,0.344c0,0.19,0.155,0.345,0.347,0.345
			c0.191,0,0.347-0.154,0.347-0.345C81.105,59.796,80.95,59.643,80.759,59.643z"/>
		<path style="fill:#ED1C24;" d="M90.262,59.229c-0.254,0-0.46,0.204-0.46,0.456c0,0.253,0.206,0.457,0.46,0.457
			c0.254,0,0.459-0.204,0.459-0.457C90.721,59.434,90.516,59.229,90.262,59.229z"/>
		<path style="fill:#F26522;" d="M91.664,57.846c-0.248,0-0.449,0.2-0.449,0.446c0,0.247,0.201,0.447,0.449,0.447
			c0.248,0,0.45-0.2,0.45-0.447C92.114,58.046,91.912,57.846,91.664,57.846z"/>
		<path style="fill:#ED1C24;" d="M97.845,53.474c-0.287,0-0.519,0.232-0.519,0.517c0,0.285,0.232,0.516,0.519,0.516
			c0.287,0,0.52-0.231,0.52-0.516C98.364,53.705,98.132,53.474,97.845,53.474z"/>
		<path style="fill:#FFDE17;" d="M105.961,55.412c-0.218,0-0.394,0.175-0.394,0.391c0,0.216,0.176,0.391,0.394,0.391
			c0.217,0,0.393-0.175,0.393-0.391C106.353,55.587,106.178,55.412,105.961,55.412z"/>
		<path style="fill:#00AEEF;" d="M99.383,54.256c0-0.237-0.193-0.43-0.433-0.43c-0.238,0-0.432,0.192-0.432,0.43
			c0,0.236,0.193,0.429,0.432,0.429C99.189,54.685,99.383,54.492,99.383,54.256z"/>
		<path style="fill:#ED1C24;" d="M99.393,60.895c-0.291,0-0.527,0.234-0.527,0.523c0,0.289,0.236,0.523,0.527,0.523
			s0.527-0.234,0.527-0.523C99.92,61.129,99.684,60.895,99.393,60.895z"/>
		<path style="fill:#F26522;" d="M112.345,59.509c-0.232,0-0.421,0.188-0.421,0.418c0,0.231,0.188,0.418,0.421,0.418
			s0.421-0.187,0.421-0.418C112.766,59.696,112.577,59.509,112.345,59.509z"/>
		<path style="fill:#ED1C24;" d="M116.75,59.211c-0.161,0-0.292,0.13-0.292,0.29c0,0.16,0.131,0.29,0.292,0.29
			c0.162,0,0.293-0.13,0.293-0.29C117.043,59.341,116.912,59.211,116.75,59.211z"/>
		<path style="fill:#F26522;" d="M59.131,63.805c-0.131,0-0.238,0.106-0.238,0.237c0,0.131,0.107,0.236,0.238,0.236
			c0.132,0,0.238-0.105,0.238-0.236C59.37,63.911,59.263,63.805,59.131,63.805z"/>
		<path style="fill:#00A14B;" d="M66.344,58.293c-0.206,0-0.373,0.166-0.373,0.37c0,0.205,0.167,0.371,0.373,0.371
			c0.207,0,0.374-0.166,0.374-0.371C66.718,58.459,66.551,58.293,66.344,58.293z"/>
		<path style="fill:#7F3F98;" d="M83.14,63.977c-0.158,0-0.286,0.127-0.286,0.284c0,0.156,0.128,0.283,0.286,0.283
			c0.157,0,0.286-0.127,0.286-0.283C83.426,64.104,83.297,63.977,83.14,63.977z"/>
		<path style="fill:#00AEEF;" d="M93.015,66.592c-0.195,0-0.354,0.157-0.354,0.351c0,0.194,0.158,0.352,0.354,0.352
			c0.195,0,0.354-0.157,0.354-0.352C93.368,66.749,93.21,66.592,93.015,66.592z"/>
		<path style="fill:#7F3F98;" d="M93.02,58.963c-0.227,0-0.41,0.182-0.41,0.407c0,0.225,0.184,0.406,0.41,0.406
			c0.226,0,0.409-0.182,0.409-0.406C93.43,59.145,93.246,58.963,93.02,58.963z"/>
		<ellipse style="fill:#00AEEF;" cx="99.437" cy="72" rx="0.399" ry="0.396"/>
		<path style="fill:#ED1C24;" d="M108.352,59.749c-0.185,0-0.334,0.148-0.334,0.332c0,0.183,0.149,0.332,0.334,0.332
			c0.185,0,0.335-0.149,0.335-0.332C108.686,59.897,108.536,59.749,108.352,59.749z"/>
		<ellipse style="fill:#00A14B;" cx="96.478" cy="67.392" rx="0.458" ry="0.455"/>
	</g>
	
		<radialGradient id="SVGID_00000174591044247518073630000009647996544346880959_" cx="23.8393" cy="2959.145" r="8.1383" gradientTransform="matrix(1.1026 0 0 0.2215 -3.2571 -579.9008)" gradientUnits="userSpaceOnUse">
		<stop  offset="0" style="stop-color:#D1D3D4"/>
		<stop  offset="0.1753" style="stop-color:#E4E5E6"/>
		<stop  offset="0.3858" style="stop-color:#F3F4F4"/>
		<stop  offset="0.6325" style="stop-color:#FCFCFC"/>
		<stop  offset="1" style="stop-color:#FFFFFF"/>
	</radialGradient>
	<path style="opacity:0.59;fill:url(#SVGID_00000174591044247518073630000009647996544346880959_);" d="M32.001,75.55
		c0,0.995-4.018,1.803-8.973,1.803c-4.955,0-8.973-0.808-8.973-1.803c0-0.995,4.017-1.803,8.973-1.803
		C27.983,73.747,32.001,74.555,32.001,75.55z"/>
	
		<radialGradient id="SVGID_00000155833791107322997440000010759859371717952153_" cx="40.9211" cy="2829.9858" r="8.1379" gradientTransform="matrix(1.1026 0 0 0.2019 -3.2571 -495.3981)" gradientUnits="userSpaceOnUse">
		<stop  offset="0" style="stop-color:#D1D3D4"/>
		<stop  offset="0.1753" style="stop-color:#E4E5E6"/>
		<stop  offset="0.3858" style="stop-color:#F3F4F4"/>
		<stop  offset="0.6325" style="stop-color:#FCFCFC"/>
		<stop  offset="1" style="stop-color:#FFFFFF"/>
	</radialGradient>
	<path style="opacity:0.59;fill:url(#SVGID_00000155833791107322997440000010759859371717952153_);" d="M50.835,75.976
		c0,0.908-4.017,1.644-8.973,1.644s-8.973-0.735-8.973-1.644c0-0.907,4.017-1.643,8.973-1.643S50.835,75.068,50.835,75.976z"/>
	
		<radialGradient id="SVGID_00000136382114237493777460000006532766301490452368_" cx="93.5004" cy="3373.3079" r="8.1375" gradientTransform="matrix(1.1026 0 0 0.3004 -3.2571 -937.1503)" gradientUnits="userSpaceOnUse">
		<stop  offset="0" style="stop-color:#D1D3D4"/>
		<stop  offset="0.1753" style="stop-color:#E4E5E6"/>
		<stop  offset="0.3858" style="stop-color:#F3F4F4"/>
		<stop  offset="0.6325" style="stop-color:#FCFCFC"/>
		<stop  offset="1" style="stop-color:#FFFFFF"/>
	</radialGradient>
	<path style="opacity:0.59;fill:url(#SVGID_00000136382114237493777460000006532766301490452368_);" d="M108.81,76.191
		c0,1.351-4.018,2.444-8.973,2.444c-4.956,0-8.974-1.094-8.974-2.444c0-1.35,4.018-2.444,8.974-2.444
		C104.792,73.747,108.81,74.842,108.81,76.191z"/>
</g>
</svg>
