<svg xmlns="http://www.w3.org/2000/svg" version="1.1" xmlns:xlink="http://www.w3.org/1999/xlink" xmlns:svgjs="http://svgjs.dev/svgjs" width="2000" height="530" viewBox="0 0 2000 530"><g transform="matrix(1,0,0,1,-1.2121212121212466,-2.2094243977388714)"><svg viewBox="0 0 396 105" data-background-color="#ffffff" preserveAspectRatio="xMidYMid meet" height="530" width="2000" xmlns="http://www.w3.org/2000/svg" xmlns:xlink="http://www.w3.org/1999/xlink"><g id="tight-bounds" transform="matrix(1,0,0,1,0.2400000000000091,0.437716154269026)"><svg viewBox="0 0 395.52 104.12447639229893" height="104.12447639229893" width="395.52"><g><svg viewBox="0 0 568.1836948923169 149.57986884431693" height="104.12447639229893" width="395.52"><g transform="matrix(1,0,0,1,172.66369489231693,50.34460108882513)"><svg viewBox="0 0 395.52 48.89066666666667" height="48.89066666666667" width="395.52"><g id="textblocktransform"><svg viewBox="0 0 395.52 48.89066666666667" height="48.89066666666667" width="395.52" id="textblock"><g><svg viewBox="0 0 395.52 48.89066666666667" height="48.89066666666667" width="395.52"><g transform="matrix(1,0,0,1,0,0)"><svg width="395.52" viewBox="2.5 -34.8 287.97 35.599999999999994" height="48.89066666666667" data-palette-color="#d88531"><path d="M3.8 0.6L3.8 0.6Q3 0.6 2.75-0.15 2.5-0.9 2.5-1.95L2.5-1.95Q2.5-3.7 2.7-5.68 2.9-7.65 3.1-9.55L3.1-9.55 5.85-34.75 9.5-34.8Q10.4-34.8 10.93-34.58 11.45-34.35 12.1-33.2L12.1-33.2Q14.5-29 17.3-24.88 20.1-20.75 22.65-17 25.2-13.25 26.85-10.15L26.85-10.15 25.55-8.6 26.65-19.35Q27.05-23.2 27.03-25.55 27-27.9 26.78-29.23 26.55-30.55 26.33-31.3 26.1-32.05 26.1-32.7L26.1-32.7Q26.1-33.2 26.6-33.58 27.1-33.95 27.85-34.2 28.6-34.45 29.33-34.58 30.05-34.7 30.55-34.7L30.55-34.7Q31.5-34.7 32-33.7 32.5-32.7 32.5-31.7L32.5-31.7Q32.5-30.85 32.33-29.75 32.15-28.65 31.9-26.2L31.9-26.2 31.2-19.6Q30.7-14.9 30.53-11.93 30.35-8.95 30.35-7.2 30.35-5.45 30.43-4.35 30.5-3.25 30.5-2.3L30.5-2.3Q30.5-1.75 29.95-1.23 29.4-0.7 28.55-0.3 27.7 0.1 26.9 0.33 26.1 0.55 25.55 0.55L25.55 0.55Q25.1 0.55 24.75 0.1 24.4-0.35 24.45-1.15L24.45-1.15Q24.5-1.8 24.08-2.83 23.65-3.85 23.1-4.95 22.55-6.05 22.05-6.85L22.05-6.85Q20.45-9.75 18.07-13.1 15.7-16.45 13.2-20.1 10.7-23.75 8.7-27.5L8.7-27.5 9.4-27.6 8.05-14.65Q7.7-11.2 7.65-8.97 7.6-6.75 7.75-5.45 7.9-4.15 8.1-3.45 8.3-2.75 8.47-2.33 8.65-1.9 8.65-1.4L8.65-1.4Q8.65-0.85 8.08-0.48 7.5-0.1 6.68 0.15 5.85 0.4 5.05 0.5 4.25 0.6 3.8 0.6ZM39.4 0.8L39.4 0.8Q36.6 0.8 35.4-1.48 34.2-3.75 34.2-7.85L34.2-7.85Q34.2-11.5 35.27-14.55 36.35-17.6 38.2-19.83 40.05-22.05 42.5-23.28 44.95-24.5 47.7-24.5L47.7-24.5Q49.85-24.5 51.62-23.93 53.4-23.35 54.65-22.75L54.65-22.75 53.2-17.5Q51.85-18.4 50.17-19.15 48.5-19.9 47.07-20.33 45.65-20.75 44.95-20.75L44.95-20.75Q43.55-20.75 42.37-19.38 41.2-18 40.52-15.58 39.85-13.15 39.85-10L39.85-10Q39.85-7.1 40.27-5.6 40.7-4.1 41.65-4.1L41.65-4.1Q42.3-4.1 43.85-5.58 45.4-7.05 47.6-10.5 49.8-13.95 52.25-19.85L52.25-19.85 53.65-15.4Q50.95-9.4 48.5-5.85 46.05-2.3 43.8-0.75 41.55 0.8 39.4 0.8ZM54.85 0.5L51.35 0.5Q50.35 0.5 50.15-0.48 49.95-1.45 49.95-2.55L49.95-2.55Q49.95-3.4 50.17-4.65 50.4-5.9 50.75-7.35 51.1-8.8 51.5-10.2L51.5-10.2 52.6-13.95 51.15-15.25 52.35-22.8Q53.95-23.05 55.17-23.45 56.4-23.85 57.22-24.15 58.05-24.45 58.4-24.45L58.4-24.45Q58.95-24.45 58.95-23.85L58.95-23.85Q58.95-23.6 58.32-21.73 57.7-19.85 56.97-16.95 56.25-14.05 55.9-10.65L55.9-10.65 54.85 0.5ZM81.35 0.5L77.8 0.5Q77.25 0.5 76.97-0.03 76.7-0.55 76.62-1.2 76.55-1.85 76.55-2.25L76.55-2.25Q76.55-2.95 76.65-4.05 76.75-5.15 76.9-6.38 77.05-7.6 77.2-8.5L77.2-8.5 78.05-13.7Q78.2-14.7 78.35-15.58 78.5-16.45 78.5-17.45L78.5-17.45Q78.5-18.2 78.2-18.6 77.9-19 77.4-19L77.4-19Q76.75-19 75.25-17.75 73.75-16.5 72.05-14.18 70.35-11.85 68.97-8.6 67.6-5.35 67.2-1.35L67.2-1.35 65.9-8.75Q67.4-13.1 69.27-16.1 71.15-19.1 73.1-20.95 75.05-22.8 76.87-23.65 78.7-24.5 80.1-24.5L80.1-24.5Q81.6-24.5 82.52-23.95 83.45-23.4 83.87-22.43 84.3-21.45 84.3-20.15L84.3-20.15Q84.3-18.9 84.12-17.68 83.95-16.45 83.75-15.15L83.75-15.15 81.35 0.5ZM62.85 0.7L62.85 0.7Q62.2 0.7 61.87 0.48 61.55 0.25 61.52-0.7 61.5-1.65 61.75-3.75L61.75-3.75 64.1-24.55 67.6-24.55Q68.35-24.55 68.95-23.45 69.55-22.35 69.55-20.95L69.55-20.95Q69.55-20.3 69.17-18.93 68.8-17.55 68.3-16.03 67.8-14.5 67.4-13.35L67.4-13.35 66.1-9.25 67.95-9.55 67.15-1.35Q67.1-0.85 66.55-0.45 66-0.05 65.25 0.2 64.5 0.45 63.82 0.58 63.15 0.7 62.85 0.7ZM96.44 0.75L96.44 0.75Q92.14 0.75 89.77-1.78 87.39-4.3 87.39-9.2L87.39-9.2Q87.39-12.45 88.47-15.23 89.54-18 91.39-20.1 93.24-22.2 95.67-23.38 98.09-24.55 100.79-24.55L100.79-24.55Q105.09-24.55 107.37-22 109.64-19.45 109.64-14.3L109.64-14.3Q109.64-11.2 108.62-8.47 107.59-5.75 105.79-3.68 103.99-1.6 101.59-0.43 99.19 0.75 96.44 0.75ZM97.64-3L97.64-3Q99.54-3 100.92-4.4 102.29-5.8 103.02-8.25 103.74-10.7 103.74-13.75L103.74-13.75Q103.74-17 102.77-18.9 101.79-20.8 99.54-20.8L99.54-20.8Q97.69-20.8 96.27-19.4 94.84-18 94.07-15.58 93.29-13.15 93.29-10.05L93.29-10.05Q93.29-6.6 94.39-4.8 95.49-3 97.64-3ZM147.89 0.7L147.89 0.7Q147.49 0.7 147.11 0.45 146.74 0.2 146.59-0.75L146.59-0.75 144.19-20.9 143.54-24.55Q143.14-27 142.79-28.2 142.44-29.4 142.04-30.15L142.04-30.15Q141.64-30.9 141.41-31.38 141.19-31.85 141.19-32.3L141.19-32.3Q141.19-32.8 141.71-33.23 142.24-33.65 143.01-33.95 143.79-34.25 144.61-34.43 145.44-34.6 146.04-34.6L146.04-34.6Q147.34-34.6 148.19-32.5 149.04-30.4 149.59-25.5L149.59-25.5 151.99-4.65 150.29-4.05 158.14-24.55Q158.74-26.05 158.89-27 159.04-27.95 159.04-28.75 159.04-29.55 159.14-30.55L159.14-30.55Q159.24-31.5 160.06-32.25 160.89-33 161.96-33.55 163.04-34.1 164.01-34.4 164.99-34.7 165.44-34.7L165.44-34.7Q166.79-34.7 166.79-33.85L166.79-33.85Q166.79-33.6 166.69-33.27 166.59-32.95 166.39-32.55L166.39-32.55 153.79-2.6Q153.49-1.9 152.74-1.13 151.99-0.35 150.79 0.18 149.59 0.7 147.89 0.7ZM131.69 0.7L131.69 0.7Q131.29 0.7 130.91 0.45 130.54 0.2 130.39-0.75L130.39-0.75 127.89-22.2Q127.59-24.9 127.31-26.33 127.04-27.75 126.74-28.48 126.44-29.2 126.14-29.75L126.14-29.75Q125.74-30.55 125.41-31.03 125.09-31.5 125.09-31.95L125.09-31.95Q125.09-32.45 125.64-32.93 126.19-33.4 127.04-33.77 127.89-34.15 128.79-34.38 129.69-34.6 130.34-34.6L130.34-34.6Q131.09-34.6 131.76-33.77 132.44-32.95 132.99-30.98 133.54-29 133.84-25.5L133.84-25.5 135.84-4.65 133.89-4.05 144.64-27.9 145.19-20.15 137.69-2.35Q137.24-1.25 135.71-0.28 134.19 0.7 131.69 0.7ZM172.59 0.75L172.59 0.75Q168.29 0.75 165.91-1.78 163.54-4.3 163.54-9.2L163.54-9.2Q163.54-12.45 164.61-15.23 165.69-18 167.54-20.1 169.39-22.2 171.81-23.38 174.24-24.55 176.94-24.55L176.94-24.55Q181.24-24.55 183.51-22 185.79-19.45 185.79-14.3L185.79-14.3Q185.79-11.2 184.76-8.47 183.74-5.75 181.94-3.68 180.14-1.6 177.74-0.43 175.34 0.75 172.59 0.75ZM173.79-3L173.79-3Q175.69-3 177.06-4.4 178.44-5.8 179.16-8.25 179.89-10.7 179.89-13.75L179.89-13.75Q179.89-17 178.91-18.9 177.94-20.8 175.69-20.8L175.69-20.8Q173.84-20.8 172.41-19.4 170.99-18 170.21-15.58 169.44-13.15 169.44-10.05L169.44-10.05Q169.44-6.6 170.54-4.8 171.64-3 173.79-3ZM194.23-1.2L194.23-1.2 193.03-8.75Q194.88-13.55 196.81-17.07 198.73-20.6 200.73-22.55 202.73-24.5 204.78-24.5L204.78-24.5Q205.93-24.5 206.43-23.78 206.93-23.05 206.93-21.95L206.93-21.95Q206.93-20.95 206.71-20.03 206.48-19.1 206.06-18.5 205.63-17.9 205.03-17.9L205.03-17.9Q204.48-17.9 203.81-18.25 203.13-18.6 201.98-18.6L201.98-18.6Q201.23-18.6 200.08-17.05 198.93-15.5 197.71-12.93 196.48-10.35 195.53-7.28 194.58-4.2 194.23-1.2ZM190.03 0.7L190.03 0.7Q189.38 0.7 189.06 0.48 188.73 0.25 188.71-0.7 188.68-1.65 188.93-3.75L188.93-3.75 191.28-24.55 194.78-24.55Q195.53-24.55 196.13-23.45 196.73-22.35 196.73-20.95L196.73-20.95Q196.73-20.3 196.36-18.93 195.98-17.55 195.48-16.03 194.98-14.5 194.58-13.35L194.58-13.35 193.28-9.25 195.13-9.55 194.23-1.2Q194.18-0.7 193.63-0.33 193.08 0.05 192.36 0.28 191.63 0.5 190.98 0.6 190.33 0.7 190.03 0.7ZM225.38 0.55L225.38 0.55Q224.28 0.55 223.13-0.5 221.98-1.55 220.88-3.28 219.78-5 218.81-7.1 217.83-9.2 217.13-11.35L217.13-11.35Q216.93-11.95 216.68-12.8 216.43-13.65 216.43-14.45L216.43-14.45Q216.43-15 216.61-15.48 216.78-15.95 217.13-16.5L217.13-16.5Q218.13-18.1 219.56-19.55 220.98-21 222.68-22.13 224.38-23.25 226.18-23.88 227.98-24.5 229.68-24.5L229.68-24.5Q231.03-24.5 231.46-23.85 231.88-23.2 231.88-22.05L231.88-22.05Q231.88-20.95 231.61-20.13 231.33-19.3 230.93-18.85 230.53-18.4 230.18-18.4L230.18-18.4Q229.53-18.4 228.68-18.8 227.83-19.2 226.63-19.2L226.63-19.2Q224.58-19.2 222.86-17.88 221.13-16.55 220.18-14.95L220.18-14.95 220.68-17.1Q222.83-11.35 224.63-8.45 226.43-5.55 227.73-4.2L227.73-4.2Q228.58-3.35 229.23-3.03 229.88-2.7 229.88-2.2L229.88-2.2Q229.88-1.55 229.06-0.93 228.23-0.3 227.18 0.13 226.13 0.55 225.38 0.55ZM213.73 0.7L210.23 0.7Q209.33 0.7 208.83-0.4 208.33-1.5 208.38-2.95L208.38-2.95Q208.43-4.65 208.68-7 208.93-9.35 209.18-11.65L209.18-11.65 210.58-23.45Q210.88-25.7 210.73-27.45 210.58-29.2 210.33-30.55 210.08-31.9 210.08-32.85L210.08-32.85Q210.08-33.4 210.96-33.83 211.83-34.25 212.98-34.52 214.13-34.8 214.93-34.8L214.93-34.8Q215.78-34.8 216.43-33.58 217.08-32.35 217.08-30.75L217.08-30.75Q217.08-30.4 216.98-28.8 216.88-27.2 216.58-25.15L216.58-25.15 214.98-13.65Q214.48-10.05 214.28-6.48 214.08-2.9 213.73 0.7L213.73 0.7ZM239.68 0.8L239.68 0.8Q235.83 0.8 233.73-1.63 231.63-4.05 231.63-8.3L231.63-8.3Q231.63-11.85 232.63-14.8 233.63-17.75 235.43-19.95 237.23-22.15 239.65-23.35 242.08-24.55 244.93-24.55L244.93-24.55Q248.33-24.55 250.13-23.1 251.93-21.65 251.93-18.95L251.93-18.95Q251.93-16.2 250.1-14.15 248.28-12.1 244.85-10.65 241.43-9.2 236.68-8.2L236.68-8.2 236.03-11.2Q238.78-11.55 241.08-12.4 243.38-13.25 244.78-14.68 246.18-16.1 246.18-18.05L246.18-18.05Q246.18-19.4 245.65-20.1 245.13-20.8 243.78-20.8L243.78-20.8Q241.73-20.8 240.3-19.3 238.88-17.8 238.15-15.4 237.43-13 237.43-10.3L237.43-10.3Q237.43-6.65 238.55-5.43 239.68-4.2 241.88-4.2L241.88-4.2Q244.18-4.2 245.9-4.93 247.63-5.65 248.88-6.45L248.88-6.45Q249.28-6.7 249.58-6.85 249.88-7 250.08-7L250.08-7Q250.33-7 250.48-6.8 250.63-6.6 250.63-6.35L250.63-6.35Q250.63-5.45 249.83-4.25 249.03-3.05 247.55-1.9 246.08-0.75 244.08 0.03 242.08 0.8 239.68 0.8ZM260.08-1.2L260.08-1.2 258.88-8.75Q260.73-13.55 262.65-17.07 264.58-20.6 266.58-22.55 268.58-24.5 270.63-24.5L270.63-24.5Q271.78-24.5 272.28-23.78 272.78-23.05 272.78-21.95L272.78-21.95Q272.78-20.95 272.55-20.03 272.33-19.1 271.9-18.5 271.48-17.9 270.88-17.9L270.88-17.9Q270.33-17.9 269.65-18.25 268.98-18.6 267.83-18.6L267.83-18.6Q267.08-18.6 265.93-17.05 264.78-15.5 263.55-12.93 262.33-10.35 261.38-7.28 260.43-4.2 260.08-1.2ZM255.88 0.7L255.88 0.7Q255.23 0.7 254.9 0.48 254.58 0.25 254.55-0.7 254.53-1.65 254.78-3.75L254.78-3.75 257.13-24.55 260.63-24.55Q261.38-24.55 261.98-23.45 262.58-22.35 262.58-20.95L262.58-20.95Q262.58-20.3 262.2-18.93 261.83-17.55 261.33-16.03 260.83-14.5 260.43-13.35L260.43-13.35 259.13-9.25 260.98-9.55 260.08-1.2Q260.03-0.7 259.48-0.33 258.93 0.05 258.2 0.28 257.48 0.5 256.83 0.6 256.18 0.7 255.88 0.7ZM280.32 0.8L280.32 0.8Q276.52 0.8 274.35-0.38 272.17-1.55 272.17-3.55L272.17-3.55Q272.17-4.45 272.45-5.23 272.72-6 273.27-6L273.27-6Q273.47-6 273.72-5.9 273.97-5.8 274.67-5.35L274.67-5.35Q275.67-4.7 276.9-4.15 278.12-3.6 279.4-3.28 280.67-2.95 281.77-2.95L281.77-2.95Q283.37-2.95 284.1-3.73 284.82-4.5 284.82-5.8L284.82-5.8Q284.82-6.75 284.25-7.38 283.67-8 282.42-8.8L282.42-8.8 279.32-10.8Q277.37-12.05 276.05-13.48 274.72-14.9 274.72-17.2L274.72-17.2Q274.72-20.45 277.22-22.48 279.72-24.5 284.27-24.5L284.27-24.5Q287.47-24.5 288.97-23.85 290.47-23.2 290.47-21.6L290.47-21.6Q290.47-20.35 290.1-19.5 289.72-18.65 289.07-18.65L289.07-18.65Q288.87-18.65 288.55-18.75 288.22-18.85 287.97-19L287.97-19Q287.57-19.25 286.72-19.7 285.87-20.15 284.82-20.53 283.77-20.9 282.62-20.9L282.62-20.9Q281.47-20.9 280.75-20.23 280.02-19.55 280.02-18.4L280.02-18.4Q280.02-17.45 280.62-16.8 281.22-16.15 282.62-15.45L282.62-15.45 285.87-13.95Q287.92-13 289.2-11.73 290.47-10.45 290.47-7.95L290.47-7.95Q290.47-5 289.05-3.05 287.62-1.1 285.3-0.15 282.97 0.8 280.32 0.8Z" opacity="1" transform="matrix(1,0,0,1,0,0)" fill="#d88531" class="wordmark-text-0" data-fill-palette-color="primary" id="text-0"></path></svg></g></svg></g></svg></g></svg></g><g><svg viewBox="0 0 149.57986884431693 149.57986884431693" height="149.57986884431693" width="149.57986884431693"><g><svg></svg></g><g id="icon-0"><svg viewBox="0 0 149.57986884431693 149.57986884431693" height="149.57986884431693" width="149.57986884431693"><g><path d="M0 74.79c0-41.305 33.485-74.79 74.79-74.79 41.305 0 74.79 33.485 74.79 74.79 0 41.305-33.485 74.79-74.79 74.79-41.305 0-74.79-33.485-74.79-74.79zM74.79 145.171c38.87 0 70.381-31.511 70.381-70.381 0-38.87-31.511-70.381-70.381-70.381-38.87 0-70.381 31.511-70.381 70.381 0 38.87 31.511 70.381 70.381 70.381z" data-fill-palette-color="accent" fill="#001f3f" stroke="transparent"></path><ellipse rx="74.04203507793689" ry="74.04203507793689" cx="74.78993442215847" cy="74.78993442215847" fill="#001f3f" stroke="transparent" stroke-width="0" fill-opacity="1" data-fill-palette-color="accent"></ellipse></g><g transform="matrix(1,0,0,1,36.25764573759114,36.25764573759114)"><svg viewBox="0 0 77.06457736913465 77.06457736913465" height="77.06457736913465" width="77.06457736913465"><g><svg xmlns="http://www.w3.org/2000/svg" xmlns:xlink="http://www.w3.org/1999/xlink" version="1.1" x="0" y="0" viewBox="19 19 474 474" style="enable-background:new 0 0 512 512;" xml:space="preserve" height="77.06457736913465" width="77.06457736913465" class="icon-dxe-0" data-fill-palette-color="quaternary" id="dxe-0"><g fill="#efe1c6" data-fill-palette-color="quaternary"><g fill="#efe1c6" data-fill-palette-color="quaternary"><g fill="#efe1c6" data-fill-palette-color="quaternary"><g fill="#efe1c6" data-fill-palette-color="quaternary"><path d="M186 323H146C142.1 323 139 319.9 139 316S142.1 309 146 309H179V206C179 165.7 146.3 133 106 133S33 165.7 33 206V309H66C69.9 309 73 312.1 73 316S69.9 323 66 323H26C22.1 323 19 319.9 19 316V206C19 158 58 119 106 119S193 158 193 206V316C193 319.9 189.9 323 186 323" fill="#efe1c6" data-fill-palette-color="quaternary"></path></g><g fill="#efe1c6" data-fill-palette-color="quaternary"><path d="M66 493C62.1 493 59 489.9 59 486V286C59 282.1 62.1 279 66 279S73 282.1 73 286V486C73 489.9 69.9 493 66 493" fill="#efe1c6" data-fill-palette-color="quaternary"></path></g><g fill="#efe1c6" data-fill-palette-color="quaternary"><path d="M146 493C142.1 493 139 489.9 139 486V286C139 282.1 142.1 279 146 279S153 282.1 153 286V486C153 489.9 149.9 493 146 493" fill="#efe1c6" data-fill-palette-color="quaternary"></path></g><g fill="#efe1c6" data-fill-palette-color="quaternary"><path d="M106 493C102.1 493 99 489.9 99 486V336C99 332.1 102.1 329 106 329S113 332.1 113 336V486C113 489.9 109.9 493 106 493" fill="#efe1c6" data-fill-palette-color="quaternary"></path></g><g fill="#efe1c6" data-fill-palette-color="quaternary"><path d="M106 133C74.6 133 49 107.4 49 76S74.6 19 106 19 163 44.6 163 76 137.4 133 106 133M106 33C82.3 33 63 52.3 63 76S82.3 119 106 119 149 99.7 149 76 129.7 33 106 33" fill="#efe1c6" data-fill-palette-color="quaternary"></path></g><rect x="96" y="196" width="20" height="20" fill="#efe1c6" data-fill-palette-color="quaternary"></rect><g fill="#efe1c6" data-fill-palette-color="quaternary"><path d="M256 493C252.1 493 249 489.9 249 486S252.1 479 256 479C379 479 479 379 479 256S379 33 256 33C252.1 33 249 29.9 249 26S252.1 19 256 19C319.3 19 378.8 43.7 423.6 88.4 468.3 133.2 493 192.7 493 256S468.3 378.8 423.6 423.6C378.8 468.3 319.3 493 256 493" fill="#efe1c6" data-fill-palette-color="quaternary"></path></g><g fill="#efe1c6" data-fill-palette-color="quaternary"><path d="M256 493C252.1 493 249 489.9 249 486S252.1 479 256 479C290.9 479 323.9 456.3 349 415 374.8 372.6 389 316.2 389 256S374.8 139.4 349 97C323.9 55.7 290.8 33 256 33 252.1 33 249 29.9 249 26S252.1 19 256 19C295.9 19 333.2 44.1 361 89.7 388.1 134.2 403 193.3 403 256S388.1 377.8 361 422.3C333.2 467.9 295.9 493 256 493" fill="#efe1c6" data-fill-palette-color="quaternary"></path></g><g fill="#efe1c6" data-fill-palette-color="quaternary"><path d="M256 493C252.1 493 249 489.9 249 486V26C249 22.1 252.1 19 256 19S263 22.1 263 26V486C263 489.9 259.9 493 256 493" fill="#efe1c6" data-fill-palette-color="quaternary"></path></g><g fill="#efe1c6" data-fill-palette-color="quaternary"><path d="M486 263H256C252.1 263 249 259.9 249 256S252.1 249 256 249H486C489.9 249 493 252.1 493 256S489.9 263 486 263" fill="#efe1c6" data-fill-palette-color="quaternary"></path></g><g fill="#efe1c6" data-fill-palette-color="quaternary"><path d="M456 153H256C252.1 153 249 149.9 249 146S252.1 139 256 139H456C459.9 139 463 142.1 463 146S459.9 153 456 153" fill="#efe1c6" data-fill-palette-color="quaternary"></path></g><g fill="#efe1c6" data-fill-palette-color="quaternary"><path d="M456 373H256C252.1 373 249 369.9 249 366S252.1 359 256 359H456C459.9 359 463 362.1 463 366S459.9 373 456 373" fill="#efe1c6" data-fill-palette-color="quaternary"></path></g></g></g></g></svg></g></svg></g></svg></g></svg></g></svg></g><defs></defs></svg><rect width="395.52" height="104.12447639229893" fill="none" stroke="none" visibility="hidden"></rect></g></svg></g></svg>